<?xml version="1.0" encoding="UTF-8" ?>
<!DOCTYPE svg PUBLIC "-//W3C//DTD SVG 1.1//EN" "http://www.w3.org/Graphics/SVG/1.1/DTD/svg11.dtd">
<svg width="453pt" height="263pt" viewBox="0 0 453 263" version="1.1" xmlns="http://www.w3.org/2000/svg">
<g id="#93ba09ff">
<path fill="#93ba09" opacity="1.00" d=" M 7.46 157.25 C 49.07 106.31 90.93 55.56 132.67 4.73 C 136.46 4.74 140.26 4.73 144.05 4.73 C 144.05 6.21 144.04 7.68 144.04 9.15 C 144.06 56.27 144.04 103.38 144.05 150.50 C 145.52 150.49 147.00 150.49 148.48 150.48 C 152.97 150.47 157.46 150.47 161.95 150.49 C 163.80 150.50 165.64 150.50 167.49 150.52 C 167.34 158.72 167.67 166.92 167.29 175.11 C 166.54 175.15 165.04 175.23 164.29 175.27 C 157.56 175.36 150.82 175.29 144.08 175.29 C 144.00 196.45 144.08 217.61 144.03 238.76 C 133.92 238.78 123.82 238.78 113.71 238.74 C 113.71 219.07 113.75 199.40 113.68 179.72 C 113.73 178.25 113.74 176.77 113.77 175.30 C 78.33 175.25 42.89 175.41 7.44 175.21 C 7.50 169.22 7.49 163.23 7.46 157.25 M 45.87 150.45 C 49.29 150.47 52.72 150.52 56.14 150.48 C 75.33 150.48 94.51 150.48 113.70 150.48 C 113.78 126.60 113.62 102.71 113.77 78.82 C 113.83 75.42 113.65 72.02 113.67 68.63 C 91.11 95.93 68.54 123.23 45.87 150.45 Z" />
<path fill="#93ba09" opacity="1.00" d=" M 404.10 13.24 C 407.91 13.25 411.72 13.24 415.53 13.24 C 415.52 14.63 415.53 16.01 415.53 17.39 C 415.52 64.67 415.53 111.96 415.53 159.24 C 416.53 159.24 418.53 159.24 419.53 159.24 C 426.03 159.23 432.53 159.25 439.03 159.24 C 439.03 159.67 439.02 160.53 439.01 160.96 C 438.99 168.65 439.09 176.34 439.03 184.04 C 431.20 184.09 423.36 184.05 415.53 184.09 C 415.52 205.23 415.54 226.38 415.52 247.52 C 405.34 247.55 395.15 247.54 384.97 247.49 C 384.97 229.21 384.93 210.93 384.99 192.66 C 385.02 189.79 384.98 186.92 384.96 184.05 C 359.28 184.08 333.59 184.09 307.92 184.01 C 308.19 183.56 308.74 182.68 309.01 182.23 C 311.08 173.57 312.02 164.66 312.68 155.79 C 314.15 145.15 313.16 134.39 313.50 123.70 C 314.90 122.00 316.29 120.29 317.66 118.56 C 346.41 83.41 375.33 48.38 404.10 13.24 M 319.93 155.95 C 318.87 157.21 317.67 158.34 316.44 159.42 C 319.36 159.22 322.30 159.21 325.24 159.23 C 345.14 159.25 365.04 159.24 384.94 159.24 C 384.98 135.49 384.96 111.74 384.95 87.99 C 384.98 84.45 384.91 80.91 384.95 77.38 C 363.35 103.63 341.57 129.73 319.93 155.95 Z" />
</g>
<g id="#0000004d">
<path fill="#000000" opacity="0.30" d=" M 144.04 9.15 C 144.67 9.22 145.94 9.34 146.58 9.41 C 147.83 11.76 148.79 14.30 148.59 17.02 C 148.45 61.50 148.68 105.99 148.48 150.48 C 147.00 150.49 145.52 150.49 144.05 150.50 C 144.04 103.38 144.06 56.27 144.04 9.15 Z" />
<path fill="#000000" opacity="0.30" d=" M 415.53 17.39 C 417.96 18.24 420.01 20.17 419.62 22.95 C 419.61 68.37 419.78 113.81 419.53 159.24 C 418.53 159.24 416.53 159.24 415.53 159.24 C 415.53 111.96 415.52 64.67 415.53 17.39 Z" />
<path fill="#000000" opacity="0.30" d=" M 227.03 39.26 C 239.11 35.56 253.66 37.67 262.78 46.91 C 256.91 46.91 251.78 43.47 245.98 43.02 C 236.22 41.93 225.55 44.32 218.38 51.38 C 209.07 59.85 204.70 72.16 201.95 84.12 C 199.78 94.25 198.42 104.58 198.38 114.95 C 197.39 123.92 197.57 132.95 197.66 141.96 C 198.91 160.70 199.60 179.88 206.05 197.74 C 207.00 200.15 207.47 202.73 207.38 205.32 C 204.49 202.26 203.41 198.08 201.91 194.26 C 196.07 177.15 194.53 158.95 193.73 141.00 C 193.25 123.61 193.41 106.11 196.15 88.89 C 197.98 77.94 200.73 66.93 206.26 57.20 C 210.74 49.01 217.94 41.99 227.03 39.26 Z" />
<path fill="#000000" opacity="0.30" d=" M 295.31 37.97 C 298.69 38.64 299.86 42.18 301.49 44.75 C 311.94 63.75 314.62 85.73 316.41 106.99 C 316.56 110.87 316.47 114.81 317.66 118.56 C 316.29 120.29 314.90 122.00 313.50 123.70 C 313.26 123.98 312.79 124.55 312.56 124.83 C 312.46 107.79 311.35 90.68 308.19 73.91 C 305.83 61.35 301.89 48.99 295.31 37.97 Z" />
<path fill="#000000" opacity="0.30" d=" M 45.87 150.45 C 68.54 123.23 91.11 95.93 113.67 68.63 C 113.65 72.02 113.83 75.42 113.77 78.82 C 113.28 81.30 111.63 83.25 109.80 84.89 C 105.25 89.06 101.72 94.16 97.72 98.82 C 87.18 111.59 76.53 124.27 66.04 137.08 C 62.39 141.28 58.76 145.54 56.14 150.48 C 52.72 150.52 49.29 150.47 45.87 150.45 Z" />
<path fill="#000000" opacity="0.30" d=" M 319.93 155.95 C 341.57 129.73 363.35 103.63 384.95 77.38 C 384.91 80.91 384.98 84.45 384.95 87.99 C 379.13 92.79 374.85 99.06 369.98 104.75 C 355.16 122.98 339.68 140.70 325.24 159.23 C 322.30 159.21 319.36 159.22 316.44 159.42 C 317.67 158.34 318.87 157.21 319.93 155.95 Z" />
<path fill="#000000" opacity="0.30" d=" M 439.01 160.96 C 441.10 162.63 443.90 164.21 444.24 167.15 C 444.61 171.75 444.38 176.37 444.41 180.99 C 444.42 184.03 443.75 187.84 440.70 189.29 C 434.60 192.27 426.97 188.05 421.36 192.52 C 421.27 208.36 421.31 224.21 421.34 240.06 C 421.28 243.68 420.93 247.41 419.44 250.75 C 418.96 252.00 417.63 252.48 416.49 252.91 C 411.87 254.57 406.90 254.36 402.07 254.37 C 397.88 254.34 393.56 254.30 389.59 252.80 C 387.44 251.69 386.39 249.32 384.97 247.49 C 395.15 247.54 405.34 247.55 415.52 247.52 C 415.54 226.38 415.52 205.23 415.53 184.09 C 423.36 184.05 431.20 184.09 439.03 184.04 C 439.09 176.34 438.99 168.65 439.01 160.96 Z" />
<path fill="#000000" opacity="0.30" d=" M 7.44 175.21 C 42.89 175.41 78.33 175.25 113.77 175.30 C 113.74 176.77 113.73 178.25 113.68 179.72 C 113.41 180.89 113.04 182.02 112.69 183.17 C 105.24 179.23 96.91 183.54 89.01 182.25 C 82.70 181.05 76.33 182.23 69.99 181.57 C 66.62 181.53 63.30 182.37 59.93 182.38 C 54.92 182.55 49.96 180.89 44.96 181.77 C 38.67 182.74 32.31 182.13 25.98 182.30 C 22.04 182.24 17.97 182.72 14.15 181.54 C 11.05 180.56 9.20 177.74 7.44 175.21 Z" />
<path fill="#000000" opacity="0.30" d=" M 144.08 175.29 C 150.82 175.29 157.56 175.36 164.29 175.27 C 164.98 179.21 165.72 183.14 166.38 187.09 C 165.26 185.27 164.67 182.68 162.39 182.00 C 157.93 180.87 152.35 180.46 149.35 184.66 C 149.47 201.46 149.33 218.27 149.43 235.08 C 149.47 238.19 148.83 241.92 145.95 243.68 C 141.97 245.77 137.34 245.34 133.01 245.39 C 128.67 245.28 124.20 245.80 119.98 244.49 C 117.03 243.78 115.53 240.87 113.71 238.74 C 123.82 238.78 133.92 238.78 144.03 238.76 C 144.08 217.61 144.00 196.45 144.08 175.29 Z" />
<path fill="#000000" opacity="0.30" d=" M 302.73 197.85 C 304.50 193.26 305.28 188.22 307.92 184.01 C 333.59 184.09 359.28 184.08 384.96 184.05 C 384.98 186.92 385.02 189.79 384.99 192.66 C 384.06 191.88 383.14 191.11 382.22 190.35 C 360.45 190.45 338.68 190.37 316.91 190.39 C 313.70 190.03 311.31 192.70 310.16 195.39 C 308.30 199.75 307.31 204.44 305.39 208.78 C 299.29 223.22 290.53 237.19 277.34 246.12 C 261.19 257.13 240.31 258.98 221.57 255.02 C 208.92 252.55 196.89 246.42 188.04 236.97 C 181.80 230.96 177.42 223.34 173.94 215.48 C 173.08 213.58 172.76 211.52 172.53 209.48 C 175.61 216.65 179.33 223.65 184.66 229.42 C 193.79 240.01 206.77 246.90 220.48 249.31 C 237.86 252.40 256.97 251.06 272.08 241.18 C 287.37 231.26 296.88 214.71 302.73 197.85 Z" />
</g>
<g id="#272727ff">
<path fill="#272727" opacity="1.00" d=" M 226.90 11.07 C 242.29 8.95 258.63 10.31 272.65 17.39 C 281.87 22.06 289.66 29.36 295.31 37.97 C 301.89 48.99 305.83 61.35 308.19 73.91 C 311.35 90.68 312.46 107.79 312.56 124.83 C 312.79 124.55 313.26 123.98 313.50 123.70 C 313.16 134.39 314.15 145.15 312.68 155.79 C 312.02 164.66 311.08 173.57 309.01 182.23 C 308.74 182.68 308.19 183.56 307.92 184.01 C 305.28 188.22 304.50 193.26 302.73 197.85 C 296.88 214.71 287.37 231.26 272.08 241.18 C 256.97 251.06 237.86 252.40 220.48 249.31 C 206.77 246.90 193.79 240.01 184.66 229.42 C 179.33 223.65 175.61 216.65 172.53 209.48 C 169.73 202.25 167.72 194.72 166.38 187.09 C 165.72 183.14 164.98 179.21 164.29 175.27 C 165.04 175.23 166.54 175.15 167.29 175.11 C 167.67 166.92 167.34 158.72 167.49 150.52 C 165.64 150.50 163.80 150.50 161.95 150.49 C 161.39 138.13 161.31 125.74 161.56 113.37 C 162.78 86.15 169.17 58.07 185.83 35.96 C 195.65 22.78 210.55 13.42 226.90 11.07 M 227.03 39.26 C 217.94 41.99 210.74 49.01 206.26 57.20 C 200.73 66.93 197.98 77.94 196.15 88.89 C 193.41 106.11 193.25 123.61 193.73 141.00 C 194.53 158.95 196.07 177.15 201.91 194.26 C 203.41 198.08 204.49 202.26 207.38 205.32 L 207.39 205.99 C 211.79 213.60 218.57 220.42 227.38 222.47 C 239.23 224.96 252.60 221.92 261.24 213.14 C 269.61 204.83 273.60 193.25 275.94 181.95 C 280.08 161.58 280.56 140.69 280.44 119.98 C 280.08 105.31 279.71 90.54 276.90 76.09 C 274.81 65.40 270.45 54.94 262.91 46.92 L 262.78 46.91 C 253.66 37.67 239.11 35.56 227.03 39.26 Z" />
</g>
</svg>
