<?xml version="1.0" encoding="UTF-8" ?>
<!DOCTYPE svg PUBLIC "-//W3C//DTD SVG 1.1//EN" "http://www.w3.org/Graphics/SVG/1.1/DTD/svg11.dtd">
<svg width="728pt" height="90pt" viewBox="0 0 728 90" version="1.1" xmlns="http://www.w3.org/2000/svg">
<g id="#022981ff">
<path fill="#022981" opacity="1.00" d=" M 0.00 0.00 L 728.00 0.00 L 728.00 90.00 L 0.00 90.00 L 0.00 0.00 M 295.22 34.14 C 291.50 37.77 292.29 43.81 290.26 48.30 C 290.02 50.39 287.76 53.40 290.24 54.83 C 294.58 56.00 291.70 47.17 295.99 48.01 C 300.36 47.65 297.75 56.52 302.99 55.05 C 302.63 48.28 300.24 41.85 298.66 35.32 C 298.25 33.61 296.55 33.93 295.22 34.14 M 313.16 34.13 C 311.02 37.37 313.15 42.71 306.26 40.31 C 301.21 45.10 303.74 57.38 312.62 54.60 C 317.98 54.79 313.47 45.43 315.32 42.67 C 318.33 46.68 316.64 54.67 322.86 55.05 C 325.00 50.62 326.18 45.79 327.87 41.18 C 323.54 37.90 323.69 44.97 322.60 47.68 C 318.80 52.78 321.87 37.63 317.11 40.28 C 312.13 42.75 317.98 32.01 313.16 34.13 M 356.12 33.89 C 354.26 35.54 354.71 39.66 357.81 38.92 C 360.44 37.17 357.87 35.01 356.12 33.89 M 402.23 34.12 C 398.92 35.76 403.71 42.91 399.92 43.00 C 389.92 47.89 399.52 32.62 392.05 35.02 C 391.90 41.67 391.90 48.33 392.05 54.98 C 398.78 57.21 391.99 45.57 396.05 44.99 C 405.60 39.59 397.33 59.45 404.81 53.78 C 404.04 47.99 408.61 35.96 402.23 34.12 M 349.56 37.47 C 347.79 40.50 344.06 40.06 341.13 41.18 C 340.68 45.36 341.01 49.58 341.10 53.77 C 346.71 58.48 342.91 45.54 344.08 43.03 C 352.36 40.46 344.09 54.45 351.35 54.64 C 361.71 58.14 357.18 44.88 357.92 39.83 C 352.05 40.37 356.34 48.57 354.88 52.07 C 349.69 53.20 350.81 46.28 351.13 43.40 C 356.84 44.00 351.25 37.03 349.56 37.47 M 330.20 40.05 C 326.99 43.82 326.89 50.10 330.18 53.86 C 333.38 53.65 340.60 56.42 338.97 51.03 C 335.85 51.98 331.82 52.04 330.96 48.09 C 333.12 47.13 339.41 50.34 339.01 46.94 C 341.36 41.07 334.56 38.31 330.20 40.05 M 362.38 40.38 C 355.79 42.54 362.55 48.71 366.31 50.02 C 365.17 53.29 359.05 50.01 360.00 54.01 C 363.32 53.99 366.83 54.25 369.92 52.81 C 372.41 47.00 365.59 46.11 362.81 43.06 C 365.07 42.55 369.35 45.40 369.95 41.96 C 371.46 37.51 363.45 41.80 362.38 40.38 M 373.26 40.13 C 368.94 43.35 369.34 52.69 375.07 53.92 C 377.62 53.85 383.15 56.10 382.01 51.98 C 381.66 48.95 375.32 54.20 375.06 49.97 C 373.80 45.39 383.81 50.35 382.51 45.65 C 382.46 40.90 377.87 38.07 373.26 40.13 M 409.20 40.05 C 405.99 43.82 405.89 50.10 409.18 53.86 C 412.38 53.65 419.59 56.42 417.97 51.04 C 415.83 51.14 411.80 52.71 411.05 49.97 C 409.39 45.21 418.98 51.04 418.01 46.91 C 420.35 41.06 413.55 38.31 409.20 40.05 M 420.04 40.00 C 420.05 43.79 420.07 51.37 420.07 55.16 C 426.48 54.56 420.43 45.24 424.42 42.40 C 428.06 39.80 423.81 38.56 420.04 40.00 M 429.35 40.28 C 424.47 42.45 425.06 50.75 429.22 53.82 C 432.34 53.96 438.56 56.03 436.98 51.02 C 434.09 51.95 430.09 52.14 429.90 48.13 C 433.42 47.23 441.60 50.80 437.68 43.32 C 436.92 39.84 432.12 39.28 429.35 40.28 Z" />
<path fill="#022981" opacity="1.00" d=" M 296.27 41.32 C 297.79 40.33 296.69 44.82 296.96 46.00 C 293.96 47.19 294.42 42.19 296.27 41.32 Z" />
<path fill="#022981" opacity="1.00" d=" M 332.20 42.06 C 336.11 41.31 337.94 47.45 332.97 46.03 C 329.60 46.93 331.68 43.70 332.20 42.06 Z" />
<path fill="#022981" opacity="1.00" d=" M 376.17 42.23 C 377.99 41.93 380.78 47.31 377.35 45.62 C 374.10 45.49 373.49 44.16 376.17 42.23 Z" />
<path fill="#022981" opacity="1.00" d=" M 412.30 42.25 C 414.23 40.80 416.71 47.68 413.03 46.02 C 409.01 47.24 409.66 43.66 412.30 42.25 Z" />
<path fill="#022981" opacity="1.00" d=" M 308.19 43.14 C 313.96 40.80 312.84 48.85 310.91 51.98 C 306.88 51.14 306.04 46.20 308.19 43.14 Z" />
<path fill="#022981" opacity="1.00" d=" M 430.01 43.00 C 433.08 41.51 437.32 45.74 432.30 45.73 C 430.20 46.20 429.54 45.04 430.01 43.00 Z" />
</g>
<g id="#328dc7ff">
<path fill="#328dc7" opacity="1.00" d=" M 295.22 34.14 C 296.55 33.93 298.25 33.61 298.66 35.32 C 300.24 41.85 302.63 48.28 302.99 55.05 C 297.75 56.52 300.36 47.65 295.99 48.01 C 291.70 47.17 294.58 56.00 290.24 54.83 C 287.76 53.40 290.02 50.39 290.26 48.30 C 292.29 43.81 291.50 37.77 295.22 34.14 M 296.27 41.32 C 294.42 42.19 293.96 47.19 296.96 46.00 C 296.69 44.82 297.79 40.33 296.27 41.32 Z" />
<path fill="#328dc7" opacity="1.00" d=" M 313.16 34.13 C 317.98 32.01 312.13 42.75 317.11 40.28 C 321.87 37.63 318.80 52.78 322.60 47.68 C 323.69 44.97 323.54 37.90 327.87 41.18 C 326.18 45.79 325.00 50.62 322.86 55.05 C 316.64 54.67 318.33 46.68 315.32 42.67 C 313.47 45.43 317.98 54.79 312.62 54.60 C 303.74 57.38 301.21 45.10 306.26 40.31 C 313.15 42.71 311.02 37.37 313.16 34.13 M 308.19 43.14 C 306.04 46.20 306.88 51.14 310.91 51.98 C 312.84 48.85 313.96 40.80 308.19 43.14 Z" />
<path fill="#328dc7" opacity="1.00" d=" M 356.12 33.89 C 357.87 35.01 360.44 37.17 357.81 38.92 C 354.71 39.66 354.26 35.54 356.12 33.89 Z" />
<path fill="#328dc7" opacity="1.00" d=" M 402.23 34.12 C 408.61 35.96 404.04 47.99 404.81 53.78 C 397.33 59.45 405.60 39.59 396.05 44.99 C 391.99 45.57 398.78 57.21 392.05 54.98 C 391.90 48.33 391.90 41.67 392.05 35.02 C 399.52 32.62 389.92 47.89 399.92 43.00 C 403.71 42.91 398.92 35.76 402.23 34.12 Z" />
<path fill="#328dc7" opacity="1.00" d=" M 349.56 37.47 C 351.25 37.03 356.84 44.00 351.13 43.40 C 350.81 46.28 349.69 53.20 354.88 52.07 C 356.34 48.57 352.05 40.37 357.92 39.83 C 357.18 44.88 361.71 58.14 351.35 54.64 C 344.09 54.45 352.36 40.46 344.08 43.03 C 342.91 45.54 346.71 58.48 341.10 53.77 C 341.01 49.58 340.68 45.36 341.13 41.18 C 344.06 40.06 347.79 40.50 349.56 37.47 Z" />
<path fill="#328dc7" opacity="1.00" d=" M 330.20 40.05 C 334.56 38.31 341.36 41.07 339.01 46.94 C 339.41 50.34 333.12 47.13 330.96 48.09 C 331.82 52.04 335.85 51.98 338.97 51.03 C 340.60 56.42 333.38 53.65 330.18 53.86 C 326.89 50.10 326.99 43.82 330.20 40.05 M 332.20 42.06 C 331.68 43.70 329.60 46.93 332.97 46.03 C 337.94 47.45 336.11 41.31 332.20 42.06 Z" />
<path fill="#328dc7" opacity="1.00" d=" M 362.38 40.38 C 363.45 41.80 371.46 37.51 369.95 41.96 C 369.35 45.40 365.07 42.55 362.81 43.06 C 365.59 46.11 372.41 47.00 369.92 52.81 C 366.83 54.25 363.32 53.99 360.00 54.01 C 359.05 50.01 365.17 53.29 366.31 50.02 C 362.55 48.71 355.79 42.54 362.38 40.38 Z" />
<path fill="#328dc7" opacity="1.00" d=" M 373.26 40.13 C 377.87 38.07 382.46 40.90 382.51 45.65 C 383.81 50.35 373.80 45.39 375.06 49.97 C 375.32 54.20 381.66 48.95 382.01 51.98 C 383.15 56.10 377.62 53.85 375.07 53.92 C 369.34 52.69 368.94 43.35 373.26 40.13 M 376.17 42.23 C 373.49 44.16 374.10 45.49 377.35 45.62 C 380.78 47.31 377.99 41.93 376.17 42.23 Z" />
<path fill="#328dc7" opacity="1.00" d=" M 409.20 40.05 C 413.55 38.31 420.35 41.06 418.01 46.91 C 418.98 51.04 409.39 45.21 411.05 49.97 C 411.80 52.71 415.83 51.14 417.97 51.04 C 419.59 56.42 412.38 53.65 409.18 53.86 C 405.89 50.10 405.99 43.82 409.20 40.05 M 412.30 42.25 C 409.66 43.66 409.01 47.24 413.03 46.02 C 416.71 47.68 414.23 40.80 412.30 42.25 Z" />
<path fill="#328dc7" opacity="1.00" d=" M 420.04 40.00 C 423.81 38.56 428.06 39.80 424.42 42.40 C 420.43 45.24 426.48 54.56 420.07 55.16 C 420.07 51.37 420.05 43.79 420.04 40.00 Z" />
<path fill="#328dc7" opacity="1.00" d=" M 429.35 40.28 C 432.12 39.28 436.92 39.84 437.68 43.32 C 441.60 50.80 433.42 47.23 429.90 48.13 C 430.09 52.14 434.09 51.95 436.98 51.02 C 438.56 56.03 432.34 53.96 429.22 53.82 C 425.06 50.75 424.47 42.45 429.35 40.28 M 430.01 43.00 C 429.54 45.04 430.20 46.20 432.30 45.73 C 437.32 45.74 433.08 41.51 430.01 43.00 Z" />
</g>
</svg>
