<?xml version="1.0" encoding="UTF-8" ?>
<!DOCTYPE svg PUBLIC "-//W3C//DTD SVG 1.1//EN" "http://www.w3.org/Graphics/SVG/1.1/DTD/svg11.dtd">
<svg width="350pt" height="300pt" viewBox="0 0 350 300" version="1.1" xmlns="http://www.w3.org/2000/svg">
<g id="#2d89f0ff">
<path fill="#2d89f0" opacity="1.00" d=" M 0.00 0.00 L 350.00 0.00 L 350.00 227.00 C 233.33 226.99 116.67 227.01 0.00 227.00 L 0.00 0.00 M 52.30 21.39 C 49.93 24.79 49.74 29.05 49.71 33.05 C 51.15 33.62 52.59 34.19 54.03 34.76 C 54.47 31.32 54.95 27.34 57.94 25.08 C 61.40 22.28 66.09 23.27 70.19 23.15 C 66.28 21.28 61.97 21.00 57.73 21.61 C 61.23 19.95 65.02 18.05 69.01 18.94 C 72.18 19.44 74.71 21.57 77.13 23.52 C 78.97 23.51 80.80 23.48 82.64 23.44 C 80.30 19.82 77.43 16.24 73.24 14.71 C 65.88 11.31 56.48 14.57 52.30 21.39 M 84.68 19.34 C 84.71 22.05 84.75 24.76 84.81 27.47 C 87.51 27.48 90.21 27.47 92.92 27.46 C 92.89 24.75 92.90 22.03 92.94 19.31 C 90.18 19.33 87.43 19.33 84.68 19.34 M 215.86 23.41 C 215.83 32.32 215.85 41.23 215.85 50.14 C 217.38 50.15 218.91 50.15 220.45 50.16 C 220.49 41.27 220.45 32.38 220.47 23.50 C 218.93 23.46 217.40 23.44 215.86 23.41 M 129.83 24.17 C 129.81 32.82 129.80 41.47 129.82 50.12 C 135.59 49.89 141.95 51.23 147.19 48.14 C 154.97 43.53 154.79 30.45 146.96 25.98 C 141.74 23.06 135.52 24.42 129.83 24.17 M 156.01 29.26 C 158.43 30.01 159.48 27.32 160.86 25.94 C 159.62 25.02 158.41 24.06 157.01 23.39 C 153.88 23.41 153.07 28.19 156.01 29.26 M 179.46 24.46 C 177.57 25.83 178.93 29.23 181.04 29.29 C 183.18 29.84 185.44 26.98 184.12 25.13 C 183.33 23.39 180.60 22.71 179.46 24.46 M 231.30 24.45 C 223.09 26.55 219.95 37.08 223.97 44.04 C 227.82 51.41 239.08 52.57 244.79 46.79 C 249.15 42.33 249.78 34.80 246.43 29.59 C 243.34 24.64 236.71 22.84 231.30 24.45 M 77.37 24.88 C 77.43 26.96 77.47 29.04 77.54 31.12 C 79.57 31.10 81.60 31.07 83.63 31.05 C 83.61 28.94 83.58 26.82 83.55 24.70 C 81.49 24.76 79.43 24.81 77.37 24.88 M 189.08 26.28 C 188.75 28.07 188.42 29.87 188.10 31.66 C 187.33 31.88 185.79 32.31 185.02 32.52 C 185.05 33.08 185.13 34.18 185.16 34.74 C 185.84 34.89 187.20 35.20 187.87 35.36 C 188.02 39.69 187.04 44.29 188.61 48.43 C 190.75 51.58 194.87 50.09 197.86 49.34 C 197.29 48.28 196.73 47.21 196.16 46.15 C 194.95 46.33 193.73 46.51 192.52 46.68 C 192.37 42.85 192.39 39.02 192.37 35.19 C 193.97 35.18 195.57 35.16 197.18 35.15 C 197.21 34.32 197.28 32.67 197.32 31.85 C 195.67 31.82 194.02 31.79 192.38 31.77 C 192.39 29.87 192.40 27.97 192.40 26.07 C 191.57 26.12 189.91 26.23 189.08 26.28 M 93.20 32.55 C 94.89 32.57 96.57 32.51 98.26 32.52 C 98.23 30.88 98.20 29.24 98.17 27.60 C 96.73 27.72 95.29 27.89 93.87 28.11 C 93.42 29.55 93.44 31.07 93.20 32.55 M 102.80 27.75 C 102.80 29.43 102.85 31.12 102.86 32.80 C 104.51 32.73 106.16 32.64 107.81 32.55 C 107.59 31.09 107.54 29.59 107.09 28.18 C 105.66 27.99 104.23 27.85 102.80 27.75 M 36.94 39.91 C 36.28 44.36 39.00 48.09 41.92 51.09 C 43.66 49.96 45.39 48.82 47.13 47.69 C 45.21 44.97 44.24 41.78 43.59 38.55 C 43.31 41.50 43.37 44.45 43.24 47.41 C 41.97 44.53 40.25 41.11 41.91 38.01 C 43.06 35.18 46.09 34.16 48.66 33.06 C 48.60 31.36 48.54 29.67 48.47 27.98 C 42.66 29.01 36.65 33.46 36.94 39.91 M 161.29 36.96 C 161.30 38.86 162.49 40.48 163.24 42.16 C 162.50 44.01 162.18 45.97 162.28 47.96 C 161.13 49.85 159.36 52.57 161.72 54.34 C 165.51 57.37 171.47 57.23 175.37 54.47 C 178.02 52.76 178.83 47.99 175.63 46.42 C 172.22 45.18 168.35 45.85 165.12 43.97 C 168.12 43.02 171.94 43.66 174.31 41.25 C 175.93 38.47 176.73 35.28 178.40 32.52 C 174.93 32.28 171.50 31.53 168.03 31.38 C 164.78 31.12 161.50 33.64 161.29 36.96 M 179.28 31.65 C 179.10 37.80 179.13 43.95 179.24 50.11 C 180.71 50.12 182.19 50.14 183.67 50.15 C 183.67 43.99 183.67 37.82 183.67 31.66 C 182.20 31.66 180.74 31.66 179.28 31.65 M 198.12 34.25 C 198.89 34.99 199.69 35.70 200.53 36.37 C 202.71 36.05 204.79 35.11 207.03 35.11 C 208.44 35.90 208.56 37.81 209.29 39.14 C 205.70 39.85 201.35 39.68 198.79 42.76 C 196.79 44.85 197.94 48.46 200.25 49.78 C 203.03 51.31 206.05 49.78 208.73 48.83 C 210.19 49.47 211.67 50.08 213.19 50.63 C 213.24 46.10 213.59 41.54 213.08 37.02 C 212.81 33.96 210.11 31.39 207.03 31.36 C 203.77 31.00 200.84 32.70 198.12 34.25 M 252.13 33.09 C 247.09 37.32 247.69 47.11 254.06 49.76 C 257.82 51.41 261.81 49.60 264.85 47.33 C 264.03 46.62 263.20 45.91 262.38 45.21 C 260.31 45.93 257.99 47.47 255.79 46.26 C 252.82 43.90 252.82 38.88 255.05 36.02 C 257.32 33.78 260.51 35.71 263.04 36.31 C 263.29 35.31 263.62 34.33 263.78 33.31 C 260.43 30.87 255.51 30.55 252.13 33.09 M 299.34 31.66 C 299.32 37.83 299.34 44.00 299.32 50.17 C 300.80 50.15 302.28 50.12 303.76 50.09 C 303.87 46.02 303.59 41.94 303.95 37.88 C 304.09 34.69 310.31 33.72 310.58 37.28 C 311.08 41.55 310.68 45.86 310.76 50.14 C 312.17 50.13 313.58 50.13 314.99 50.12 C 314.93 45.39 315.23 40.64 314.86 35.91 C 314.82 34.13 313.50 32.71 311.98 31.95 C 309.18 30.34 306.11 32.07 303.53 33.26 C 303.28 32.86 302.79 32.04 302.54 31.63 C 301.47 31.64 300.40 31.65 299.34 31.66 M 154.69 31.67 C 154.71 37.82 154.68 43.97 154.72 50.12 C 156.24 50.13 157.77 50.14 159.29 50.15 C 159.31 43.99 159.31 37.83 159.29 31.67 C 157.76 31.67 156.22 31.67 154.69 31.67 M 266.68 33.73 C 261.97 38.30 263.52 47.88 270.05 49.89 C 274.13 51.29 278.38 49.56 281.56 46.97 C 278.68 44.48 275.34 46.89 272.14 46.64 C 269.79 46.12 269.18 43.35 267.96 41.64 C 272.39 41.42 276.83 41.51 281.27 41.33 C 280.72 38.62 280.72 35.44 278.54 33.42 C 275.32 30.44 269.77 30.66 266.68 33.73 M 281.57 35.12 C 284.52 36.97 287.70 35.13 290.82 35.13 C 291.94 36.21 292.33 37.78 292.97 39.15 C 289.64 39.82 285.88 39.80 283.11 42.01 C 280.28 44.20 281.54 49.48 285.03 50.22 C 287.82 51.07 290.48 49.53 292.95 48.42 C 293.19 48.86 293.69 49.73 293.93 50.17 C 294.71 50.15 296.27 50.11 297.04 50.09 C 296.84 45.42 297.24 40.70 296.56 36.06 C 296.01 32.65 292.17 30.90 289.01 31.34 C 286.08 31.45 283.71 33.35 281.57 35.12 M 108.16 33.16 C 108.14 35.90 108.13 38.64 108.13 41.38 C 110.86 41.38 113.59 41.38 116.32 41.39 C 116.32 38.63 116.31 35.88 116.31 33.13 C 113.59 33.13 110.88 33.14 108.16 33.16 M 96.62 36.67 C 96.58 38.15 96.55 39.63 96.51 41.11 C 98.22 41.47 99.94 41.79 101.64 42.16 C 101.50 43.55 101.35 44.95 101.22 46.35 C 102.91 46.35 104.60 46.33 106.30 46.31 C 106.30 44.88 106.30 43.44 106.30 42.01 C 103.14 41.98 100.78 39.97 100.67 36.74 C 99.32 36.71 97.97 36.69 96.62 36.67 M 86.87 37.33 C 86.95 38.82 87.03 40.32 87.11 41.81 C 88.65 41.82 90.19 41.83 91.73 41.83 C 91.77 40.33 91.80 38.83 91.84 37.32 C 90.19 37.33 88.53 37.33 86.87 37.33 M 41.61 53.10 C 46.93 51.36 52.25 48.99 57.96 49.09 C 64.27 48.74 69.98 51.74 75.88 53.46 C 85.80 56.54 96.71 58.15 106.82 55.01 C 110.95 53.80 113.85 50.50 116.37 47.21 C 110.88 52.28 103.51 55.43 95.94 54.66 C 84.75 53.50 75.01 46.99 64.02 44.97 C 55.73 43.61 47.59 47.62 41.61 53.10 M 82.83 48.28 C 87.38 51.09 92.56 53.66 98.07 53.02 C 101.14 52.76 103.60 50.79 105.87 48.91 C 102.32 49.90 98.78 51.33 95.03 51.15 C 90.80 51.07 86.84 49.42 82.83 48.28 M 41.68 55.53 C 54.39 52.51 67.80 53.26 80.14 57.51 C 68.73 50.83 53.41 48.09 41.68 55.53 M 194.16 91.46 C 194.11 100.15 194.15 108.84 194.16 117.54 C 195.96 117.55 197.76 117.56 199.56 117.57 C 199.57 108.86 199.57 100.14 199.56 91.43 C 197.76 91.44 195.96 91.45 194.16 91.46 M 111.17 91.60 C 111.05 93.22 110.94 94.83 110.84 96.45 C 112.57 96.49 114.52 97.05 116.05 95.93 C 116.62 94.60 116.65 93.25 116.13 91.89 C 114.49 91.62 112.82 91.64 111.17 91.60 M 20.63 93.64 C 16.71 95.37 15.90 101.20 18.79 104.19 C 20.94 106.60 24.21 107.47 26.70 109.42 C 27.01 110.67 27.25 111.93 27.45 113.21 C 23.87 113.24 20.30 112.78 16.92 111.56 C 16.93 113.34 17.13 115.12 17.16 116.90 C 20.99 117.71 25.17 118.61 28.92 116.98 C 32.99 115.49 34.22 109.68 31.60 106.42 C 29.00 103.72 24.99 102.94 22.47 100.12 C 23.06 95.73 28.39 98.03 31.20 98.61 C 31.78 97.18 32.36 95.75 32.94 94.32 C 29.00 93.12 24.59 91.73 20.63 93.64 M 39.58 93.52 C 35.92 95.01 34.54 100.02 36.75 103.24 C 38.92 106.67 43.28 107.41 46.19 110.00 C 46.06 111.14 45.63 112.14 44.91 113.02 C 41.63 113.59 38.45 112.36 35.36 111.46 C 35.41 113.27 35.51 115.08 35.58 116.89 C 39.79 117.69 44.56 118.87 48.48 116.48 C 51.59 114.72 52.39 110.38 50.85 107.31 C 48.53 104.01 44.27 103.13 41.34 100.57 C 40.43 98.83 42.46 97.56 43.97 97.41 C 45.99 97.52 47.93 98.15 49.90 98.59 C 50.50 97.11 50.95 95.58 51.55 94.11 C 47.68 93.14 43.45 91.85 39.58 93.52 M 55.70 92.99 C 55.71 101.17 55.70 109.35 55.69 117.53 C 60.09 117.51 64.66 118.03 68.90 116.56 C 78.13 113.46 78.62 98.02 69.73 94.18 C 65.27 92.47 60.37 93.09 55.70 92.99 M 86.28 93.00 C 89.07 101.19 91.86 109.38 94.65 117.58 C 96.59 117.57 98.52 117.56 100.46 117.55 C 103.38 109.41 106.08 101.20 108.83 93.00 C 106.95 93.00 105.08 93.00 103.20 93.00 C 101.35 99.19 99.30 105.32 97.50 111.53 C 95.86 105.28 93.86 99.14 91.86 93.00 C 90.00 93.00 88.14 93.00 86.28 93.00 M 215.19 94.13 C 211.86 96.17 211.49 101.22 213.96 104.07 C 216.19 106.69 219.78 107.47 222.25 109.78 C 222.52 110.93 222.31 112.12 222.34 113.29 C 218.83 113.17 215.36 112.61 212.01 111.57 C 212.03 113.33 212.27 115.08 212.32 116.84 C 216.31 117.79 220.79 118.67 224.65 116.76 C 229.14 114.68 229.52 107.33 225.11 104.94 C 222.72 102.91 218.21 102.53 217.67 98.97 C 220.03 96.14 223.64 98.11 226.60 98.55 C 227.08 97.08 227.66 95.64 228.14 94.16 C 223.97 93.06 219.12 91.54 215.19 94.13 M 139.11 94.73 C 138.62 96.08 138.12 97.43 137.63 98.77 C 136.75 99.26 135.87 99.76 135.00 100.25 C 135.00 100.89 135.00 102.16 135.00 102.80 C 135.53 102.84 136.60 102.91 137.13 102.94 C 137.33 107.19 136.41 111.74 138.17 115.75 C 140.43 118.93 144.74 117.70 148.00 117.40 C 148.01 116.00 148.01 114.60 148.02 113.20 C 146.30 113.24 144.57 113.26 142.85 113.25 C 142.58 109.81 142.54 106.36 142.53 102.91 C 144.30 102.87 146.07 102.85 147.85 102.81 C 147.84 101.45 147.84 100.09 147.84 98.73 C 146.10 98.72 144.36 98.71 142.62 98.70 C 142.56 97.34 142.51 95.99 142.45 94.63 C 141.61 94.66 139.95 94.71 139.11 94.73 M 126.03 101.25 C 125.87 100.60 125.57 99.30 125.42 98.65 C 124.44 98.67 122.46 98.70 121.48 98.72 C 121.41 105.00 121.44 111.28 121.44 117.57 C 123.24 117.56 125.04 117.55 126.84 117.54 C 126.93 113.71 126.54 109.83 127.18 106.03 C 128.00 103.43 131.31 103.83 133.43 103.12 C 133.51 101.42 133.59 99.72 133.65 98.03 C 130.85 98.40 128.16 99.35 126.03 101.25 M 151.18 98.69 C 151.19 103.15 150.87 107.62 151.34 112.07 C 151.56 114.19 152.48 116.56 154.67 117.32 C 157.81 118.80 161.31 117.57 163.88 115.54 C 164.07 116.06 164.44 117.11 164.62 117.63 C 166.03 117.58 167.44 117.53 168.85 117.48 C 168.84 111.22 168.89 104.96 168.84 98.70 C 166.94 98.71 165.03 98.73 163.14 98.74 C 162.98 103.03 163.66 107.43 162.62 111.63 C 161.98 113.86 159.06 113.64 157.34 112.93 C 156.44 108.25 156.97 103.45 156.85 98.72 C 154.96 98.71 153.07 98.70 151.18 98.69 M 231.48 103.54 C 229.98 107.85 230.28 113.84 234.58 116.45 C 238.28 118.83 242.87 117.72 246.91 117.02 C 246.95 115.54 247.00 114.05 247.04 112.57 C 244.44 113.15 241.80 114.02 239.11 113.61 C 237.38 112.97 236.63 111.01 235.47 109.73 C 239.70 109.52 243.94 109.55 248.17 109.56 C 247.89 106.83 248.27 103.77 246.58 101.42 C 242.78 96.62 233.60 97.52 231.48 103.54 M 287.78 100.74 C 284.55 104.53 284.39 110.72 287.26 114.75 C 290.69 118.98 296.71 117.99 301.42 117.10 C 301.50 115.60 301.58 114.09 301.66 112.59 C 299.17 113.11 296.67 113.89 294.10 113.69 C 292.08 113.38 291.39 111.08 290.22 109.72 C 294.50 109.51 298.79 109.58 303.07 109.51 C 302.54 106.09 302.72 101.71 299.35 99.65 C 295.82 97.67 290.78 97.86 287.78 100.74 M 111.00 98.69 C 111.00 105.00 110.98 111.30 111.02 117.61 C 112.78 117.58 114.54 117.54 116.31 117.50 C 116.30 111.24 116.31 104.98 116.29 98.71 C 114.53 98.70 112.76 98.70 111.00 98.69 M 174.03 99.72 C 174.56 101.02 175.08 102.32 175.62 103.61 C 178.05 103.10 180.50 102.67 182.97 102.36 C 183.38 103.42 183.78 104.47 184.19 105.53 C 181.37 105.83 178.45 105.79 175.74 106.71 C 170.97 108.27 171.41 116.38 176.13 117.69 C 178.88 118.45 181.60 117.29 184.09 116.25 C 185.82 116.79 187.50 117.48 189.19 118.14 C 189.24 113.44 189.54 108.73 189.16 104.04 C 189.08 101.64 187.33 99.36 184.98 98.81 C 181.34 97.78 177.57 98.78 174.03 99.72 M 252.00 98.70 C 252.01 105.01 251.98 111.31 252.02 117.62 C 253.78 117.57 255.55 117.53 257.32 117.49 C 257.33 113.79 256.99 110.05 257.53 106.38 C 258.09 103.50 261.63 103.82 263.82 103.16 C 263.94 101.45 264.05 99.73 264.17 98.01 C 261.22 98.33 258.50 99.47 256.32 101.49 C 256.27 100.79 256.16 99.40 256.11 98.70 C 254.73 98.70 253.36 98.70 252.00 98.70 M 264.50 98.72 C 266.78 105.03 269.25 111.28 271.59 117.57 C 273.43 117.56 275.27 117.55 277.11 117.53 C 279.50 111.27 281.86 105.01 284.26 98.76 C 282.38 98.73 280.50 98.69 278.63 98.67 C 277.10 102.90 275.67 107.17 274.35 111.48 C 272.95 107.22 271.52 102.96 270.12 98.70 C 268.25 98.71 266.37 98.72 264.50 98.72 M 306.44 117.57 C 308.24 117.56 310.04 117.55 311.84 117.54 C 311.91 113.72 311.53 109.86 312.18 106.08 C 313.08 103.48 316.32 103.80 318.51 103.21 C 318.61 101.51 318.70 99.81 318.80 98.12 C 316.17 98.39 313.63 99.17 311.61 100.94 C 310.66 98.90 308.47 98.67 306.54 98.24 C 306.34 104.68 306.46 111.13 306.44 117.57 M 323.28 99.27 C 319.82 100.78 319.90 106.15 322.89 108.07 C 325.51 109.75 328.38 111.05 330.74 113.11 C 327.39 114.17 323.92 113.54 320.64 112.56 C 320.69 114.08 320.74 115.59 320.80 117.11 C 324.64 117.78 328.99 118.70 332.58 116.64 C 335.66 115.00 335.96 109.94 333.10 107.95 C 330.48 106.12 327.44 104.93 325.05 102.76 C 327.85 102.64 330.63 103.04 333.37 103.57 C 333.92 102.26 334.47 100.96 335.02 99.65 C 331.22 98.66 327.05 97.61 323.28 99.27 M 142.57 147.01 C 143.32 148.07 144.08 149.13 144.83 150.19 C 147.37 149.02 150.06 147.28 152.98 148.06 C 155.80 149.18 155.30 152.80 153.86 154.85 C 150.81 159.44 146.44 162.93 142.68 166.90 C 142.69 167.75 142.72 169.45 142.74 170.30 C 148.66 170.30 154.58 170.30 160.51 170.30 C 160.53 169.02 160.55 167.73 160.58 166.45 C 156.45 166.43 152.32 166.43 148.19 166.46 C 151.64 163.14 155.47 160.08 158.13 156.05 C 160.44 152.59 160.18 146.89 156.11 144.85 C 151.61 142.67 146.50 144.46 142.57 147.01 M 169.30 144.22 C 165.99 145.01 164.27 148.39 163.71 151.48 C 162.76 156.55 162.78 162.09 165.15 166.78 C 167.40 171.28 174.12 172.12 177.71 168.76 C 180.66 166.05 180.95 161.72 181.05 157.98 C 181.01 153.90 180.87 149.23 177.89 146.08 C 175.76 143.69 172.20 143.65 169.30 144.22 M 235.25 144.15 C 234.89 148.63 234.46 153.11 234.12 157.59 C 237.55 158.05 241.15 157.49 244.48 158.62 C 246.88 160.36 246.71 164.72 244.00 166.12 C 240.61 168.10 236.70 166.07 233.23 165.41 C 233.49 166.86 233.87 168.26 234.37 169.62 C 238.20 171.22 242.76 171.30 246.55 169.51 C 251.38 166.99 252.40 159.29 248.15 155.77 C 245.53 153.54 241.86 154.12 238.69 153.89 C 238.83 152.02 238.97 150.15 239.11 148.27 C 242.41 148.30 245.70 148.30 249.00 148.30 C 249.00 146.91 248.99 145.52 248.99 144.13 C 244.41 144.13 239.83 144.16 235.25 144.15 M 254.82 150.32 C 255.59 151.33 256.35 152.33 257.13 153.34 C 258.76 152.01 260.39 150.67 262.01 149.32 C 261.50 156.30 261.73 163.29 261.72 170.28 C 263.24 170.28 264.76 170.28 266.29 170.29 C 266.28 161.39 266.39 152.49 266.22 143.60 C 261.56 144.09 258.34 147.66 254.82 150.32 M 274.31 147.02 C 275.08 148.08 275.86 149.14 276.64 150.19 C 279.19 148.99 281.93 147.19 284.88 148.06 C 288.41 150.12 286.17 154.78 284.05 157.05 C 280.85 161.54 274.64 164.24 274.04 170.23 C 280.11 170.35 286.19 170.30 292.26 170.27 C 292.28 168.99 292.30 167.72 292.33 166.44 C 288.23 166.43 284.13 166.44 280.04 166.42 C 283.44 163.07 287.30 160.06 289.88 156.00 C 292.12 152.57 292.00 146.94 287.94 144.93 C 283.47 142.65 278.22 144.38 274.31 147.02 M 36.63 149.17 C 37.68 151.45 39.39 153.33 40.76 155.42 C 39.56 155.37 37.16 155.27 35.96 155.22 C 37.54 156.63 39.15 158.01 40.75 159.40 C 42.30 157.75 43.86 156.12 45.35 154.43 C 43.97 152.93 42.53 151.50 41.22 149.95 C 42.42 149.25 43.64 148.58 44.88 147.94 C 43.43 147.01 41.98 146.09 40.61 145.04 C 39.25 146.38 37.87 147.72 36.63 149.17 M 46.92 165.84 C 48.00 166.47 49.08 167.11 50.16 167.74 C 54.34 167.06 58.85 166.10 62.90 167.82 C 68.44 170.17 68.01 179.42 62.43 181.49 C 56.99 183.47 51.11 181.70 45.98 179.59 C 46.12 181.84 46.01 184.14 46.47 186.36 C 52.77 189.07 60.33 189.39 66.71 186.74 C 75.44 182.93 77.13 169.19 69.56 163.43 C 65.16 160.10 59.30 160.63 54.13 161.12 C 54.47 157.75 54.81 154.38 55.10 151.00 C 60.50 151.00 65.90 151.00 71.31 151.00 C 71.30 148.91 71.30 146.82 71.29 144.73 C 63.74 144.68 56.20 144.69 48.65 144.72 C 48.04 151.76 47.58 158.81 46.92 165.84 M 184.28 161.27 C 182.48 163.83 182.60 167.95 185.25 169.90 C 187.41 170.83 189.80 170.29 192.06 170.22 C 191.99 168.12 191.93 166.02 191.83 163.92 C 190.26 164.48 188.70 165.05 187.10 165.50 C 187.84 165.76 189.33 166.27 190.07 166.53 C 189.96 167.22 189.74 168.60 189.63 169.29 C 187.63 168.58 184.82 167.75 185.24 165.03 C 185.10 160.89 190.32 161.85 192.94 160.42 C 190.15 159.79 186.48 158.76 184.28 161.27 M 194.16 159.57 C 194.13 163.16 194.13 166.74 194.15 170.33 C 196.55 170.28 198.96 170.20 201.36 170.08 C 201.38 168.14 201.26 166.20 201.01 164.27 C 201.10 162.93 201.14 161.58 201.18 160.23 C 198.84 159.94 196.50 159.72 194.16 159.57 M 294.86 158.95 C 294.67 162.71 294.69 166.48 294.71 170.25 L 296.54 170.30 C 296.56 167.79 296.57 165.28 296.60 162.77 C 297.59 165.57 298.39 168.49 300.14 170.94 C 301.77 168.64 302.68 165.94 303.74 163.35 C 303.69 165.96 303.77 168.57 303.90 171.18 C 307.41 168.49 305.36 163.51 305.86 159.76 C 305.15 159.75 303.73 159.72 303.03 159.71 C 302.09 162.26 301.21 164.82 300.30 167.37 C 298.95 164.28 298.53 160.18 294.86 158.95 M 308.17 159.53 C 308.13 163.13 308.13 166.73 308.15 170.34 C 310.54 170.28 312.93 170.20 315.33 170.09 C 315.41 168.08 315.32 166.07 314.70 164.14 C 315.02 163.71 315.67 162.85 315.99 162.42 C 314.37 159.53 311.05 159.64 308.17 159.53 M 159.08 176.16 C 158.98 179.96 158.98 183.75 159.05 187.55 C 161.20 187.26 163.46 187.26 165.49 186.41 C 168.27 184.38 168.40 179.46 165.60 177.40 C 163.56 176.47 161.26 176.46 159.08 176.16 M 183.49 176.30 C 182.32 177.72 184.71 179.55 185.73 177.99 C 186.86 176.59 184.49 174.72 183.49 176.30 M 194.69 175.94 C 194.65 180.04 194.68 184.14 194.92 188.23 C 195.76 186.90 196.44 185.49 197.09 184.06 C 198.64 185.55 200.31 186.92 202.07 188.18 C 201.15 186.21 200.10 184.33 199.00 182.47 C 200.03 181.30 201.08 180.13 202.11 178.96 C 201.47 178.99 200.18 179.04 199.53 179.06 C 198.55 180.12 197.57 181.18 196.59 182.24 C 196.57 180.18 196.57 178.13 196.58 176.08 C 196.11 176.05 195.17 175.98 194.69 175.94 M 77.20 188.86 C 80.80 185.66 81.70 180.65 82.72 176.18 C 79.09 179.34 78.22 184.39 77.20 188.86 M 143.50 176.51 C 143.08 177.70 142.66 178.89 142.25 180.08 C 144.08 181.79 146.03 183.36 147.82 185.13 C 145.57 185.25 143.32 185.38 141.08 185.57 C 143.28 187.37 148.15 188.71 148.95 184.93 C 149.98 181.91 145.72 180.97 144.05 179.37 C 146.00 178.62 148.00 178.04 149.92 177.22 C 147.79 176.87 145.65 176.66 143.50 176.51 M 150.35 179.22 C 151.09 181.90 153.88 183.16 155.69 185.05 C 153.49 185.22 151.29 185.38 149.10 185.61 C 151.33 187.52 156.20 188.62 157.02 184.79 C 157.66 181.74 153.59 180.88 151.92 179.04 C 153.94 178.52 155.99 178.06 157.96 177.34 C 155.42 176.76 150.82 175.20 150.35 179.22 M 173.20 176.23 C 173.12 179.99 173.12 183.75 173.18 187.51 C 175.69 187.09 178.71 187.56 180.73 185.70 C 182.49 183.22 182.58 178.95 179.72 177.23 C 177.63 176.49 175.38 176.47 173.20 176.23 M 246.14 176.53 C 246.15 180.01 245.94 183.52 246.30 187.00 C 246.67 187.13 247.41 187.40 247.78 187.53 C 248.02 184.97 248.10 182.40 248.16 179.83 C 249.07 182.77 250.11 185.69 251.80 188.27 C 252.90 185.77 253.91 183.22 254.80 180.63 C 255.10 183.24 254.96 186.06 256.56 188.31 C 257.12 184.36 257.04 180.36 257.01 176.38 C 256.34 176.43 255.00 176.54 254.33 176.60 C 253.46 179.18 252.57 181.75 251.67 184.32 C 250.72 181.71 249.80 179.08 248.88 176.46 C 248.19 176.48 246.82 176.51 246.14 176.53 M 183.57 179.12 C 183.66 182.32 183.55 185.63 184.99 188.59 C 185.56 185.43 185.60 182.21 185.66 179.01 C 185.14 179.04 184.09 179.09 183.57 179.12 M 187.70 179.89 C 186.21 182.59 190.08 183.89 191.47 185.62 C 189.70 185.56 187.92 185.49 186.15 185.53 C 188.12 188.14 193.40 188.13 193.33 184.06 C 192.09 182.90 190.60 182.04 189.22 181.07 C 190.80 180.78 192.39 180.48 193.98 180.17 C 192.03 179.51 189.43 177.99 187.70 179.89 M 258.77 181.25 C 259.19 183.25 258.62 186.21 261.10 187.01 C 263.04 187.97 264.89 186.57 266.76 186.13 C 264.61 185.53 262.46 184.97 260.32 184.38 C 262.37 184.07 264.44 183.84 266.50 183.58 C 265.99 182.32 265.78 180.95 265.15 179.75 C 263.87 179.25 262.53 178.98 261.22 178.61 C 260.40 179.49 259.58 180.37 258.77 181.25 M 267.64 179.11 C 267.66 182.17 267.70 185.23 268.10 188.27 C 269.56 185.58 269.58 182.20 271.85 179.98 C 272.34 182.83 272.39 185.86 273.88 188.43 C 274.70 185.55 273.97 181.75 277.02 180.01 C 277.30 182.64 277.43 185.30 277.85 187.92 C 281.11 186.20 279.07 181.99 278.81 179.16 C 277.39 179.23 275.97 179.26 274.55 179.37 C 272.25 179.24 269.94 179.20 267.64 179.11 M 282.81 178.57 C 281.08 180.98 279.87 185.23 283.17 186.90 C 286.58 188.91 290.09 184.58 288.45 181.38 C 287.87 178.80 284.79 179.17 282.81 178.57 M 290.10 178.81 C 290.25 181.97 289.46 185.46 291.50 188.18 C 292.13 185.05 292.15 181.37 295.52 179.87 C 296.44 182.18 297.57 184.45 298.02 186.92 C 297.24 188.38 296.24 189.70 295.33 191.09 C 296.79 190.42 299.03 190.69 299.67 188.86 C 301.35 185.45 302.55 181.81 303.46 178.13 C 300.90 179.32 300.17 182.08 299.25 184.48 C 298.67 182.60 298.07 180.73 297.46 178.86 C 295.79 179.08 294.12 179.21 292.46 179.46 C 291.67 179.22 290.89 179.00 290.10 178.81 M 83.71 179.66 C 83.70 182.40 83.70 185.14 83.72 187.88 C 84.20 187.88 85.14 187.87 85.61 187.87 C 85.97 185.49 85.54 182.71 87.38 180.84 C 89.19 182.74 88.58 185.54 88.91 187.93 C 89.35 187.90 90.24 187.85 90.69 187.83 C 91.29 185.60 89.67 181.16 93.16 181.35 C 93.71 183.85 93.92 186.40 94.44 188.91 C 95.99 186.09 95.55 182.88 95.17 179.83 C 93.66 179.89 92.15 179.96 90.64 180.05 C 88.34 179.87 86.02 179.77 83.71 179.66 M 98.37 180.42 C 95.40 182.94 97.77 189.05 101.87 187.92 C 104.58 187.53 105.47 184.34 104.61 182.07 C 104.12 179.39 100.14 178.90 98.37 180.42 Z" />
<path fill="#2d89f0" opacity="1.00" d=" M 233.39 28.43 C 236.85 27.60 241.05 28.95 242.48 32.42 C 243.86 35.74 243.94 39.89 241.90 42.97 C 238.90 47.41 231.14 47.24 228.60 42.41 C 225.88 37.65 227.36 29.66 233.39 28.43 Z" />
<path fill="#2d89f0" opacity="1.00" d=" M 134.86 28.20 C 138.24 28.43 142.23 27.55 145.03 29.97 C 148.56 33.27 148.72 39.24 146.10 43.13 C 143.63 46.52 138.94 46.39 135.21 45.98 C 134.47 40.09 135.02 34.12 134.86 28.20 Z" />
<path fill="#2d89f0" opacity="1.00" d=" M 267.88 38.36 C 269.37 36.93 270.64 34.49 273.03 34.60 C 275.36 34.51 276.28 37.03 277.54 38.52 C 274.32 38.66 271.09 38.67 267.88 38.36 Z" />
<path fill="#2d89f0" opacity="1.00" d=" M 166.37 35.37 C 168.82 32.79 173.56 36.10 171.34 39.25 C 168.80 42.44 163.21 38.45 166.37 35.37 Z" />
<path fill="#2d89f0" opacity="1.00" d=" M 285.39 44.55 C 287.71 43.20 290.30 42.44 292.97 42.25 C 292.59 43.43 292.31 44.65 291.76 45.76 C 290.50 46.92 288.63 46.99 287.08 47.56 C 286.66 46.80 285.81 45.30 285.39 44.55 Z" />
<path fill="#2d89f0" opacity="1.00" d=" M 202.59 43.76 C 204.63 42.85 206.87 42.54 209.04 42.09 C 209.20 44.95 207.18 47.95 204.00 47.08 C 202.08 47.03 201.88 45.13 202.59 43.76 Z" />
<path fill="#2d89f0" opacity="1.00" d=" M 165.30 49.36 C 168.20 49.03 172.02 48.30 174.03 51.05 C 171.50 53.75 166.46 54.27 164.10 51.12 C 164.40 50.68 165.00 49.80 165.30 49.36 Z" />
<path fill="#2d89f0" opacity="1.00" d=" M 61.06 97.27 C 64.17 97.73 68.53 97.58 69.69 101.26 C 70.47 104.53 70.79 108.64 68.26 111.27 C 66.31 113.05 63.46 112.85 61.03 113.27 C 60.99 107.94 60.96 102.61 61.06 97.27 Z" />
<path fill="#2d89f0" opacity="1.00" d=" M 235.54 105.79 C 236.83 104.52 237.73 102.29 239.80 102.21 C 241.74 102.50 242.53 104.59 243.70 105.89 C 240.98 105.98 238.26 105.96 235.54 105.79 Z" />
<path fill="#2d89f0" opacity="1.00" d=" M 292.77 102.64 C 294.07 102.50 295.36 102.58 296.67 102.67 C 297.04 103.76 297.42 104.85 297.80 105.94 C 295.30 105.97 292.81 105.97 290.31 105.88 C 291.06 104.75 291.89 103.67 292.77 102.64 Z" />
<path fill="#2d89f0" opacity="1.00" d=" M 179.51 109.71 C 181.13 109.09 182.89 108.97 184.59 108.65 C 184.04 110.07 183.59 111.55 182.79 112.85 C 181.36 114.45 179.03 113.37 177.23 113.37 C 177.96 112.14 178.57 110.80 179.51 109.71 Z" />
<path fill="#2d89f0" opacity="1.00" d=" M 170.25 148.03 C 172.11 147.63 174.47 147.61 175.27 149.72 C 177.03 153.87 176.63 158.65 176.01 163.02 C 175.80 165.57 172.91 168.15 170.43 166.52 C 168.06 164.88 168.00 161.61 167.81 159.02 C 167.86 155.31 167.39 150.89 170.25 148.03 Z" />
<path fill="#2d89f0" opacity="1.00" d=" M 39.26 149.28 C 39.81 149.81 39.81 149.81 39.26 149.28 Z" />
<path fill="#2d89f0" opacity="1.00" d=" M 196.18 161.25 C 197.49 161.58 198.81 161.94 200.12 162.31 C 198.79 163.11 197.44 163.87 196.05 164.55 C 196.08 163.72 196.15 162.07 196.18 161.25 Z" />
<path fill="#2d89f0" opacity="1.00" d=" M 310.18 161.24 C 311.49 161.59 312.81 161.95 314.14 162.31 C 312.81 163.12 311.41 163.81 310.07 164.57 C 310.09 163.74 310.15 162.07 310.18 161.24 Z" />
<path fill="#2d89f0" opacity="1.00" d=" M 195.91 165.26 C 197.28 165.84 198.83 166.19 199.92 167.28 C 198.76 168.05 197.55 168.73 196.35 169.42 C 196.24 168.38 196.02 166.30 195.91 165.26 Z" />
<path fill="#2d89f0" opacity="1.00" d=" M 309.89 165.42 C 311.27 165.84 312.64 166.30 314.01 166.78 C 312.84 167.72 311.60 168.61 310.43 169.55 C 310.30 168.52 310.03 166.45 309.89 165.42 Z" />
<path fill="#2d89f0" opacity="1.00" d=" M 161.19 177.55 C 162.92 178.66 166.02 179.28 165.48 181.98 C 165.73 184.77 162.83 185.21 160.86 185.96 C 160.86 183.15 160.96 180.35 161.19 177.55 Z" />
<path fill="#2d89f0" opacity="1.00" d=" M 175.38 177.64 C 177.30 178.49 180.32 179.30 179.76 182.06 C 180.06 184.63 177.16 185.13 175.45 186.10 C 175.32 183.28 175.30 180.46 175.38 177.64 Z" />
<path fill="#2d89f0" opacity="1.00" d=" M 99.31 185.65 C 98.73 183.35 100.24 181.62 101.90 180.29 C 102.28 182.08 102.66 183.88 102.70 185.72 C 101.55 186.23 100.42 186.21 99.31 185.65 Z" />
<path fill="#2d89f0" opacity="1.00" d=" M 261.59 181.11 C 262.74 180.18 263.41 180.43 263.58 181.85 C 262.41 182.77 261.75 182.52 261.59 181.11 Z" />
<path fill="#2d89f0" opacity="1.00" d=" M 283.43 181.28 C 284.09 181.13 285.42 180.82 286.08 180.67 C 286.76 182.18 287.14 184.25 285.62 185.40 C 283.25 186.77 282.49 182.89 283.43 181.28 Z" />
</g>
<g id="#edf4faff">
<path fill="#edf4fa" opacity="1.00" d=" M 52.30 21.39 C 56.48 14.57 65.88 11.31 73.24 14.71 C 77.43 16.24 80.30 19.82 82.64 23.44 C 80.80 23.48 78.97 23.51 77.13 23.52 C 74.71 21.57 72.18 19.44 69.01 18.94 C 65.02 18.05 61.23 19.95 57.73 21.61 C 61.97 21.00 66.28 21.28 70.19 23.15 C 66.09 23.27 61.40 22.28 57.94 25.08 C 54.95 27.34 54.47 31.32 54.03 34.76 C 52.59 34.19 51.15 33.62 49.71 33.05 C 49.74 29.05 49.93 24.79 52.30 21.39 Z" />
<path fill="#edf4fa" opacity="1.00" d=" M 84.68 19.34 C 87.43 19.33 90.18 19.33 92.94 19.31 C 92.90 22.03 92.89 24.75 92.92 27.46 C 90.21 27.47 87.51 27.48 84.81 27.47 C 84.75 24.76 84.71 22.05 84.68 19.34 Z" />
<path fill="#edf4fa" opacity="1.00" d=" M 215.86 23.41 C 217.40 23.44 218.93 23.46 220.47 23.50 C 220.45 32.38 220.49 41.27 220.45 50.16 C 218.91 50.15 217.38 50.15 215.85 50.14 C 215.85 41.23 215.83 32.32 215.86 23.41 Z" />
<path fill="#edf4fa" opacity="1.00" d=" M 129.83 24.17 C 135.52 24.42 141.74 23.06 146.96 25.98 C 154.79 30.45 154.97 43.53 147.19 48.14 C 141.95 51.23 135.59 49.89 129.82 50.12 C 129.80 41.47 129.81 32.82 129.83 24.17 M 134.86 28.20 C 135.02 34.12 134.47 40.09 135.21 45.98 C 138.94 46.39 143.63 46.52 146.10 43.13 C 148.72 39.24 148.56 33.27 145.03 29.97 C 142.23 27.55 138.24 28.43 134.86 28.20 Z" />
<path fill="#edf4fa" opacity="1.00" d=" M 156.01 29.26 C 153.07 28.19 153.88 23.41 157.01 23.39 C 158.41 24.06 159.62 25.02 160.86 25.94 C 159.48 27.32 158.43 30.01 156.01 29.26 Z" />
<path fill="#edf4fa" opacity="1.00" d=" M 179.46 24.46 C 180.60 22.71 183.33 23.39 184.12 25.13 C 185.44 26.98 183.18 29.84 181.04 29.29 C 178.93 29.23 177.57 25.83 179.46 24.46 Z" />
<path fill="#edf4fa" opacity="1.00" d=" M 231.30 24.45 C 236.71 22.84 243.34 24.64 246.43 29.59 C 249.78 34.80 249.15 42.33 244.79 46.79 C 239.08 52.57 227.82 51.41 223.97 44.04 C 219.95 37.08 223.09 26.55 231.30 24.45 M 233.39 28.43 C 227.36 29.66 225.88 37.65 228.60 42.41 C 231.14 47.24 238.90 47.41 241.90 42.97 C 243.94 39.89 243.86 35.74 242.48 32.42 C 241.05 28.95 236.85 27.60 233.39 28.43 Z" />
<path fill="#edf4fa" opacity="1.00" d=" M 77.37 24.88 C 79.43 24.81 81.49 24.76 83.55 24.70 C 83.58 26.82 83.61 28.94 83.63 31.05 C 81.60 31.07 79.57 31.10 77.54 31.12 C 77.47 29.04 77.43 26.96 77.37 24.88 Z" />
<path fill="#edf4fa" opacity="1.00" d=" M 189.08 26.28 C 189.91 26.23 191.57 26.12 192.40 26.07 C 192.40 27.97 192.39 29.87 192.38 31.77 C 194.02 31.79 195.67 31.82 197.32 31.85 C 197.28 32.67 197.21 34.32 197.18 35.15 C 195.57 35.16 193.97 35.18 192.37 35.19 C 192.39 39.02 192.37 42.85 192.52 46.68 C 193.73 46.51 194.95 46.33 196.16 46.15 C 196.73 47.21 197.29 48.28 197.86 49.34 C 194.87 50.09 190.75 51.58 188.61 48.43 C 187.04 44.29 188.02 39.69 187.87 35.36 C 187.20 35.20 185.84 34.89 185.16 34.74 C 185.13 34.18 185.05 33.08 185.02 32.52 C 185.79 32.31 187.33 31.88 188.10 31.66 C 188.42 29.87 188.75 28.07 189.08 26.28 Z" />
<path fill="#edf4fa" opacity="1.00" d=" M 93.20 32.55 C 93.44 31.07 93.42 29.55 93.87 28.11 C 95.29 27.89 96.73 27.72 98.17 27.60 C 98.20 29.24 98.23 30.88 98.26 32.52 C 96.57 32.51 94.89 32.57 93.20 32.55 Z" />
<path fill="#edf4fa" opacity="1.00" d=" M 102.80 27.75 C 104.23 27.85 105.66 27.99 107.09 28.18 C 107.54 29.59 107.59 31.09 107.81 32.55 C 106.16 32.64 104.51 32.73 102.86 32.80 C 102.85 31.12 102.80 29.43 102.80 27.75 Z" />
<path fill="#edf4fa" opacity="1.00" d=" M 36.94 39.91 C 36.65 33.46 42.66 29.01 48.47 27.98 C 48.54 29.67 48.60 31.36 48.66 33.06 C 46.09 34.16 43.06 35.18 41.91 38.01 C 40.25 41.11 41.97 44.53 43.24 47.41 C 43.37 44.45 43.31 41.50 43.59 38.55 C 44.24 41.78 45.21 44.97 47.13 47.69 C 45.39 48.82 43.66 49.96 41.92 51.09 C 39.00 48.09 36.28 44.36 36.94 39.91 Z" />
<path fill="#edf4fa" opacity="1.00" d=" M 161.29 36.96 C 161.50 33.64 164.78 31.12 168.03 31.38 C 171.50 31.53 174.93 32.28 178.40 32.52 C 176.73 35.28 175.93 38.47 174.31 41.25 C 171.94 43.66 168.12 43.02 165.12 43.97 C 168.35 45.85 172.22 45.18 175.63 46.42 C 178.83 47.99 178.02 52.76 175.37 54.47 C 171.47 57.23 165.51 57.37 161.72 54.34 C 159.36 52.57 161.13 49.85 162.28 47.96 C 162.18 45.97 162.50 44.01 163.24 42.16 C 162.49 40.48 161.30 38.86 161.29 36.96 M 166.37 35.37 C 163.21 38.45 168.80 42.44 171.34 39.25 C 173.56 36.10 168.82 32.79 166.37 35.37 M 165.30 49.36 C 165.00 49.80 164.40 50.68 164.10 51.12 C 166.46 54.27 171.50 53.75 174.03 51.05 C 172.02 48.30 168.20 49.03 165.30 49.36 Z" />
<path fill="#edf4fa" opacity="1.00" d=" M 179.28 31.65 C 180.74 31.66 182.20 31.66 183.67 31.66 C 183.67 37.82 183.67 43.99 183.67 50.15 C 182.19 50.14 180.71 50.12 179.24 50.11 C 179.13 43.95 179.10 37.80 179.28 31.65 Z" />
<path fill="#edf4fa" opacity="1.00" d=" M 198.12 34.25 C 200.84 32.70 203.77 31.00 207.03 31.36 C 210.11 31.39 212.81 33.96 213.08 37.02 C 213.59 41.54 213.24 46.10 213.19 50.63 C 211.67 50.08 210.19 49.47 208.73 48.83 C 206.05 49.78 203.03 51.31 200.25 49.78 C 197.94 48.46 196.79 44.85 198.79 42.76 C 201.35 39.68 205.70 39.85 209.29 39.14 C 208.56 37.81 208.44 35.90 207.03 35.11 C 204.79 35.11 202.71 36.05 200.53 36.37 C 199.69 35.70 198.89 34.99 198.12 34.25 M 202.59 43.76 C 201.88 45.13 202.08 47.03 204.00 47.08 C 207.18 47.95 209.20 44.95 209.04 42.09 C 206.87 42.54 204.63 42.85 202.59 43.76 Z" />
<path fill="#edf4fa" opacity="1.00" d=" M 252.13 33.09 C 255.51 30.55 260.43 30.87 263.78 33.31 C 263.62 34.33 263.29 35.31 263.04 36.31 C 260.51 35.71 257.32 33.78 255.05 36.02 C 252.82 38.88 252.82 43.90 255.79 46.26 C 257.99 47.47 260.31 45.93 262.38 45.21 C 263.20 45.91 264.03 46.62 264.85 47.33 C 261.81 49.60 257.82 51.41 254.06 49.76 C 247.69 47.11 247.09 37.32 252.13 33.09 Z" />
<path fill="#edf4fa" opacity="1.00" d=" M 299.34 31.66 C 300.40 31.65 301.47 31.64 302.54 31.63 C 302.79 32.04 303.28 32.86 303.53 33.26 C 306.11 32.07 309.18 30.34 311.98 31.95 C 313.50 32.71 314.82 34.13 314.86 35.91 C 315.23 40.64 314.93 45.39 314.99 50.12 C 313.58 50.13 312.17 50.13 310.76 50.14 C 310.68 45.86 311.08 41.55 310.58 37.28 C 310.31 33.72 304.09 34.69 303.95 37.88 C 303.59 41.94 303.87 46.02 303.76 50.09 C 302.28 50.12 300.80 50.15 299.32 50.17 C 299.34 44.00 299.32 37.83 299.34 31.66 Z" />
<path fill="#edf4fa" opacity="1.00" d=" M 154.69 31.67 C 156.22 31.67 157.76 31.67 159.29 31.67 C 159.31 37.83 159.31 43.99 159.29 50.15 C 157.77 50.14 156.24 50.13 154.72 50.12 C 154.68 43.97 154.71 37.82 154.69 31.67 Z" />
<path fill="#edf4fa" opacity="1.00" d=" M 266.68 33.73 C 269.77 30.66 275.32 30.44 278.54 33.42 C 280.72 35.44 280.72 38.62 281.27 41.33 C 276.83 41.51 272.39 41.42 267.96 41.64 C 269.18 43.35 269.79 46.12 272.14 46.64 C 275.34 46.89 278.68 44.48 281.56 46.97 C 278.38 49.56 274.13 51.29 270.05 49.89 C 263.52 47.88 261.97 38.30 266.68 33.73 M 267.88 38.36 C 271.09 38.67 274.32 38.66 277.54 38.52 C 276.28 37.03 275.36 34.51 273.03 34.60 C 270.64 34.49 269.37 36.93 267.88 38.36 Z" />
<path fill="#edf4fa" opacity="1.00" d=" M 281.57 35.12 C 283.71 33.35 286.08 31.45 289.01 31.34 C 292.17 30.90 296.01 32.65 296.56 36.06 C 297.24 40.70 296.84 45.42 297.04 50.09 C 296.27 50.11 294.71 50.15 293.93 50.17 C 293.69 49.73 293.19 48.86 292.95 48.42 C 290.48 49.53 287.82 51.07 285.03 50.22 C 281.54 49.48 280.28 44.20 283.11 42.01 C 285.88 39.80 289.64 39.82 292.97 39.15 C 292.33 37.78 291.94 36.21 290.82 35.13 C 287.70 35.13 284.52 36.97 281.57 35.12 M 285.39 44.55 C 285.81 45.30 286.66 46.80 287.08 47.56 C 288.63 46.99 290.50 46.92 291.76 45.76 C 292.31 44.65 292.59 43.43 292.97 42.25 C 290.30 42.44 287.71 43.20 285.39 44.55 Z" />
<path fill="#edf4fa" opacity="1.00" d=" M 108.16 33.16 C 110.88 33.14 113.59 33.13 116.31 33.13 C 116.31 35.88 116.32 38.63 116.32 41.39 C 113.59 41.38 110.86 41.38 108.13 41.38 C 108.13 38.64 108.14 35.90 108.16 33.16 Z" />
<path fill="#edf4fa" opacity="1.00" d=" M 96.62 36.67 C 97.97 36.69 99.32 36.71 100.67 36.74 C 100.78 39.97 103.14 41.98 106.30 42.01 C 106.30 43.44 106.30 44.88 106.30 46.31 C 104.60 46.33 102.91 46.35 101.22 46.35 C 101.35 44.95 101.50 43.55 101.64 42.16 C 99.94 41.79 98.22 41.47 96.51 41.11 C 96.55 39.63 96.58 38.15 96.62 36.67 Z" />
<path fill="#edf4fa" opacity="1.00" d=" M 86.87 37.33 C 88.53 37.33 90.19 37.33 91.84 37.32 C 91.80 38.83 91.77 40.33 91.73 41.83 C 90.19 41.83 88.65 41.82 87.11 41.81 C 87.03 40.32 86.95 38.82 86.87 37.33 Z" />
<path fill="#edf4fa" opacity="1.00" d=" M 41.61 53.10 C 47.59 47.62 55.73 43.61 64.02 44.97 C 75.01 46.99 84.75 53.50 95.94 54.66 C 103.51 55.43 110.88 52.28 116.37 47.21 C 113.85 50.50 110.95 53.80 106.82 55.01 C 96.71 58.15 85.80 56.54 75.88 53.46 C 69.98 51.74 64.27 48.74 57.96 49.09 C 52.25 48.99 46.93 51.36 41.61 53.10 Z" />
<path fill="#edf4fa" opacity="1.00" d=" M 82.83 48.28 C 86.84 49.42 90.80 51.07 95.03 51.15 C 98.78 51.33 102.32 49.90 105.87 48.91 C 103.60 50.79 101.14 52.76 98.07 53.02 C 92.56 53.66 87.38 51.09 82.83 48.28 Z" />
<path fill="#edf4fa" opacity="1.00" d=" M 41.68 55.53 C 53.41 48.09 68.73 50.83 80.14 57.51 C 67.80 53.26 54.39 52.51 41.68 55.53 Z" />
<path fill="#edf4fa" opacity="1.00" d=" M 194.16 91.46 C 195.96 91.45 197.76 91.44 199.56 91.43 C 199.57 100.14 199.57 108.86 199.56 117.57 C 197.76 117.56 195.96 117.55 194.16 117.54 C 194.15 108.84 194.11 100.15 194.16 91.46 Z" />
<path fill="#edf4fa" opacity="1.00" d=" M 111.17 91.60 C 112.82 91.64 114.49 91.62 116.13 91.89 C 116.65 93.25 116.62 94.60 116.05 95.93 C 114.52 97.05 112.57 96.49 110.84 96.45 C 110.94 94.83 111.05 93.22 111.17 91.60 Z" />
<path fill="#edf4fa" opacity="1.00" d=" M 20.63 93.64 C 24.59 91.73 29.00 93.12 32.94 94.32 C 32.36 95.75 31.78 97.18 31.20 98.61 C 28.39 98.03 23.06 95.73 22.47 100.12 C 24.99 102.94 29.00 103.72 31.60 106.42 C 34.22 109.68 32.99 115.49 28.92 116.98 C 25.17 118.61 20.99 117.71 17.16 116.90 C 17.13 115.12 16.93 113.34 16.92 111.56 C 20.30 112.78 23.87 113.24 27.45 113.21 C 27.25 111.93 27.01 110.67 26.70 109.42 C 24.21 107.47 20.94 106.60 18.79 104.19 C 15.90 101.20 16.71 95.37 20.63 93.64 Z" />
<path fill="#edf4fa" opacity="1.00" d=" M 39.58 93.52 C 43.45 91.85 47.68 93.14 51.55 94.11 C 50.95 95.58 50.50 97.11 49.90 98.59 C 47.93 98.15 45.99 97.52 43.97 97.41 C 42.46 97.56 40.43 98.83 41.34 100.57 C 44.27 103.13 48.53 104.01 50.85 107.31 C 52.39 110.38 51.59 114.72 48.48 116.48 C 44.56 118.87 39.79 117.69 35.58 116.89 C 35.51 115.08 35.41 113.27 35.36 111.46 C 38.45 112.36 41.63 113.59 44.91 113.02 C 45.63 112.14 46.06 111.14 46.19 110.00 C 43.28 107.41 38.92 106.67 36.75 103.24 C 34.54 100.02 35.92 95.01 39.58 93.52 Z" />
<path fill="#edf4fa" opacity="1.00" d=" M 55.70 92.99 C 60.37 93.09 65.27 92.47 69.73 94.18 C 78.62 98.02 78.13 113.46 68.90 116.56 C 64.66 118.03 60.09 117.51 55.69 117.53 C 55.70 109.35 55.71 101.17 55.70 92.99 M 61.06 97.27 C 60.96 102.61 60.99 107.94 61.03 113.27 C 63.46 112.85 66.31 113.05 68.26 111.27 C 70.79 108.64 70.47 104.53 69.69 101.26 C 68.53 97.58 64.17 97.73 61.06 97.27 Z" />
<path fill="#edf4fa" opacity="1.00" d=" M 86.28 93.00 C 88.14 93.00 90.00 93.00 91.86 93.00 C 93.86 99.14 95.86 105.28 97.50 111.53 C 99.30 105.32 101.35 99.19 103.20 93.00 C 105.08 93.00 106.95 93.00 108.83 93.00 C 106.08 101.20 103.38 109.41 100.46 117.55 C 98.52 117.56 96.59 117.57 94.65 117.58 C 91.86 109.38 89.07 101.19 86.28 93.00 Z" />
<path fill="#edf4fa" opacity="1.00" d=" M 215.19 94.13 C 219.12 91.54 223.97 93.06 228.14 94.16 C 227.66 95.64 227.08 97.08 226.60 98.55 C 223.64 98.11 220.03 96.14 217.67 98.97 C 218.21 102.53 222.72 102.91 225.11 104.94 C 229.52 107.33 229.14 114.68 224.65 116.76 C 220.79 118.67 216.31 117.79 212.32 116.84 C 212.27 115.08 212.03 113.33 212.01 111.57 C 215.36 112.61 218.83 113.17 222.34 113.29 C 222.31 112.12 222.52 110.93 222.25 109.78 C 219.78 107.47 216.19 106.69 213.96 104.07 C 211.49 101.22 211.86 96.17 215.19 94.13 Z" />
<path fill="#edf4fa" opacity="1.00" d=" M 139.11 94.73 C 139.95 94.71 141.61 94.66 142.45 94.63 C 142.51 95.99 142.56 97.34 142.62 98.70 C 144.36 98.71 146.10 98.72 147.84 98.73 C 147.84 100.09 147.84 101.45 147.85 102.81 C 146.07 102.85 144.30 102.87 142.53 102.91 C 142.54 106.36 142.58 109.81 142.85 113.25 C 144.57 113.26 146.30 113.24 148.02 113.20 C 148.01 114.60 148.01 116.00 148.00 117.40 C 144.74 117.70 140.43 118.93 138.17 115.75 C 136.41 111.74 137.33 107.19 137.13 102.94 C 136.60 102.91 135.53 102.84 135.00 102.80 C 135.00 102.16 135.00 100.89 135.00 100.25 C 135.87 99.76 136.75 99.26 137.63 98.77 C 138.12 97.43 138.62 96.08 139.11 94.73 Z" />
<path fill="#edf4fa" opacity="1.00" d=" M 126.03 101.25 C 128.16 99.35 130.85 98.40 133.65 98.03 C 133.59 99.72 133.51 101.42 133.43 103.12 C 131.31 103.83 128.00 103.43 127.18 106.03 C 126.54 109.83 126.93 113.71 126.84 117.54 C 125.04 117.55 123.24 117.56 121.44 117.57 C 121.44 111.28 121.41 105.00 121.48 98.72 C 122.46 98.70 124.44 98.67 125.42 98.65 C 125.57 99.30 125.87 100.60 126.03 101.25 Z" />
<path fill="#edf4fa" opacity="1.00" d=" M 151.18 98.69 C 153.07 98.70 154.96 98.71 156.85 98.72 C 156.97 103.45 156.44 108.25 157.34 112.93 C 159.06 113.64 161.98 113.86 162.62 111.63 C 163.66 107.43 162.98 103.03 163.14 98.74 C 165.03 98.73 166.94 98.71 168.84 98.70 C 168.89 104.96 168.84 111.22 168.85 117.48 C 167.44 117.53 166.03 117.58 164.62 117.63 C 164.44 117.11 164.07 116.06 163.88 115.54 C 161.31 117.57 157.81 118.80 154.67 117.32 C 152.48 116.56 151.56 114.19 151.34 112.07 C 150.87 107.62 151.19 103.15 151.18 98.69 Z" />
<path fill="#edf4fa" opacity="1.00" d=" M 231.48 103.54 C 233.60 97.52 242.78 96.62 246.58 101.42 C 248.27 103.77 247.89 106.83 248.17 109.56 C 243.94 109.55 239.70 109.52 235.47 109.73 C 236.63 111.01 237.38 112.97 239.11 113.61 C 241.80 114.02 244.44 113.15 247.04 112.57 C 247.00 114.05 246.95 115.54 246.91 117.02 C 242.87 117.72 238.28 118.83 234.58 116.45 C 230.28 113.84 229.98 107.85 231.48 103.54 M 235.54 105.79 C 238.26 105.96 240.98 105.98 243.70 105.89 C 242.53 104.59 241.74 102.50 239.80 102.21 C 237.73 102.29 236.83 104.52 235.54 105.79 Z" />
<path fill="#edf4fa" opacity="1.00" d=" M 287.78 100.74 C 290.78 97.86 295.82 97.67 299.35 99.65 C 302.72 101.71 302.54 106.09 303.07 109.51 C 298.79 109.58 294.50 109.51 290.22 109.72 C 291.39 111.08 292.08 113.38 294.10 113.69 C 296.67 113.89 299.17 113.11 301.66 112.59 C 301.58 114.09 301.50 115.60 301.42 117.10 C 296.71 117.99 290.69 118.98 287.26 114.75 C 284.39 110.72 284.55 104.53 287.78 100.74 M 292.77 102.64 C 291.89 103.67 291.06 104.75 290.31 105.88 C 292.81 105.97 295.30 105.97 297.80 105.94 C 297.42 104.85 297.04 103.76 296.67 102.67 C 295.36 102.58 294.07 102.50 292.77 102.64 Z" />
<path fill="#edf4fa" opacity="1.00" d=" M 111.00 98.69 C 112.76 98.70 114.53 98.70 116.29 98.71 C 116.31 104.98 116.30 111.24 116.31 117.50 C 114.54 117.54 112.78 117.58 111.02 117.61 C 110.98 111.30 111.00 105.00 111.00 98.69 Z" />
<path fill="#edf4fa" opacity="1.00" d=" M 174.03 99.72 C 177.57 98.78 181.34 97.78 184.98 98.81 C 187.33 99.36 189.08 101.64 189.16 104.04 C 189.54 108.73 189.24 113.44 189.19 118.14 C 187.50 117.48 185.82 116.79 184.09 116.25 C 181.60 117.29 178.88 118.45 176.13 117.69 C 171.41 116.38 170.97 108.27 175.74 106.71 C 178.45 105.79 181.37 105.83 184.19 105.53 C 183.78 104.47 183.38 103.42 182.97 102.36 C 180.50 102.67 178.05 103.10 175.62 103.61 C 175.08 102.32 174.56 101.02 174.03 99.72 M 179.51 109.71 C 178.57 110.80 177.96 112.14 177.23 113.37 C 179.03 113.37 181.36 114.45 182.79 112.85 C 183.59 111.55 184.04 110.07 184.59 108.65 C 182.89 108.97 181.13 109.09 179.51 109.71 Z" />
<path fill="#edf4fa" opacity="1.00" d=" M 252.00 98.70 C 253.36 98.70 254.73 98.70 256.11 98.70 C 256.16 99.40 256.27 100.79 256.32 101.49 C 258.50 99.47 261.22 98.33 264.17 98.01 C 264.05 99.73 263.94 101.45 263.82 103.16 C 261.63 103.82 258.09 103.50 257.53 106.38 C 256.99 110.05 257.33 113.79 257.32 117.49 C 255.55 117.53 253.78 117.57 252.02 117.62 C 251.98 111.31 252.01 105.01 252.00 98.70 Z" />
<path fill="#edf4fa" opacity="1.00" d=" M 264.50 98.72 C 266.37 98.72 268.25 98.71 270.12 98.70 C 271.52 102.96 272.95 107.22 274.35 111.48 C 275.67 107.17 277.10 102.90 278.63 98.67 C 280.50 98.69 282.38 98.73 284.26 98.76 C 281.86 105.01 279.50 111.27 277.11 117.53 C 275.27 117.55 273.43 117.56 271.59 117.57 C 269.25 111.28 266.78 105.03 264.50 98.72 Z" />
<path fill="#edf4fa" opacity="1.00" d=" M 306.44 117.57 C 306.46 111.13 306.34 104.68 306.54 98.24 C 308.47 98.67 310.66 98.90 311.61 100.94 C 313.63 99.17 316.17 98.39 318.80 98.12 C 318.70 99.81 318.61 101.51 318.51 103.21 C 316.32 103.80 313.08 103.48 312.18 106.08 C 311.53 109.86 311.91 113.72 311.84 117.54 C 310.04 117.55 308.24 117.56 306.44 117.57 Z" />
<path fill="#edf4fa" opacity="1.00" d=" M 323.28 99.27 C 327.05 97.61 331.22 98.66 335.02 99.65 C 334.47 100.96 333.92 102.26 333.37 103.57 C 330.63 103.04 327.85 102.64 325.05 102.76 C 327.44 104.93 330.48 106.12 333.10 107.95 C 335.96 109.94 335.66 115.00 332.58 116.64 C 328.99 118.70 324.64 117.78 320.80 117.11 C 320.74 115.59 320.69 114.08 320.64 112.56 C 323.92 113.54 327.39 114.17 330.74 113.11 C 328.38 111.05 325.51 109.75 322.89 108.07 C 319.90 106.15 319.82 100.78 323.28 99.27 Z" />
<path fill="#edf4fa" opacity="1.00" d=" M 142.57 147.01 C 146.50 144.46 151.61 142.67 156.11 144.85 C 160.18 146.89 160.44 152.59 158.13 156.05 C 155.47 160.08 151.64 163.14 148.19 166.46 C 152.32 166.43 156.45 166.43 160.58 166.45 C 160.55 167.73 160.53 169.02 160.51 170.30 C 154.58 170.30 148.66 170.30 142.74 170.30 C 142.72 169.45 142.69 167.75 142.68 166.90 C 146.44 162.93 150.81 159.44 153.86 154.85 C 155.30 152.80 155.80 149.18 152.98 148.06 C 150.06 147.28 147.37 149.02 144.83 150.19 C 144.08 149.13 143.32 148.07 142.57 147.01 Z" />
<path fill="#edf4fa" opacity="1.00" d=" M 169.30 144.22 C 172.20 143.65 175.76 143.69 177.89 146.08 C 180.87 149.23 181.01 153.90 181.05 157.98 C 180.95 161.72 180.66 166.05 177.71 168.76 C 174.12 172.12 167.40 171.28 165.15 166.78 C 162.78 162.09 162.76 156.55 163.71 151.48 C 164.27 148.39 165.99 145.01 169.30 144.22 M 170.25 148.03 C 167.39 150.89 167.86 155.31 167.81 159.02 C 168.00 161.61 168.06 164.88 170.43 166.52 C 172.91 168.15 175.80 165.57 176.01 163.02 C 176.63 158.65 177.03 153.87 175.27 149.72 C 174.47 147.61 172.11 147.63 170.25 148.03 Z" />
<path fill="#edf4fa" opacity="1.00" d=" M 235.25 144.15 C 239.83 144.16 244.41 144.13 248.99 144.13 C 248.99 145.52 249.00 146.91 249.00 148.30 C 245.70 148.30 242.41 148.30 239.11 148.27 C 238.97 150.15 238.83 152.02 238.69 153.89 C 241.86 154.12 245.53 153.54 248.15 155.77 C 252.40 159.29 251.38 166.99 246.55 169.51 C 242.76 171.30 238.20 171.22 234.37 169.62 C 233.87 168.26 233.49 166.86 233.23 165.41 C 236.70 166.07 240.61 168.10 244.00 166.12 C 246.71 164.72 246.88 160.36 244.48 158.62 C 241.15 157.49 237.55 158.05 234.12 157.59 C 234.46 153.11 234.89 148.63 235.25 144.15 Z" />
<path fill="#edf4fa" opacity="1.00" d=" M 254.82 150.32 C 258.34 147.66 261.56 144.09 266.22 143.60 C 266.39 152.49 266.28 161.39 266.29 170.29 C 264.76 170.28 263.24 170.28 261.72 170.28 C 261.73 163.29 261.50 156.30 262.01 149.32 C 260.39 150.67 258.76 152.01 257.13 153.34 C 256.35 152.33 255.59 151.33 254.82 150.32 Z" />
<path fill="#edf4fa" opacity="1.00" d=" M 274.31 147.02 C 278.22 144.38 283.47 142.65 287.94 144.93 C 292.00 146.94 292.12 152.57 289.88 156.00 C 287.30 160.06 283.44 163.07 280.04 166.42 C 284.13 166.44 288.23 166.43 292.33 166.44 C 292.30 167.72 292.28 168.99 292.26 170.27 C 286.19 170.30 280.11 170.35 274.04 170.23 C 274.64 164.24 280.85 161.54 284.05 157.05 C 286.17 154.78 288.41 150.12 284.88 148.06 C 281.93 147.19 279.19 148.99 276.64 150.19 C 275.86 149.14 275.08 148.08 274.31 147.02 Z" />
<path fill="#edf4fa" opacity="1.00" d=" M 36.63 149.17 C 37.87 147.72 39.25 146.38 40.61 145.04 C 41.98 146.09 43.43 147.01 44.88 147.94 C 43.64 148.58 42.42 149.25 41.22 149.95 C 42.53 151.50 43.97 152.93 45.35 154.43 C 43.86 156.12 42.30 157.75 40.75 159.40 C 39.15 158.01 37.54 156.63 35.96 155.22 C 37.16 155.27 39.56 155.37 40.76 155.42 C 39.39 153.33 37.68 151.45 36.63 149.17 M 39.26 149.28 C 39.81 149.81 39.81 149.81 39.26 149.28 M 41.27 154.29 C 41.86 154.69 41.86 154.69 41.27 154.29 Z" />
<path fill="#edf4fa" opacity="1.00" d=" M 46.92 165.84 C 47.58 158.81 48.04 151.76 48.65 144.72 C 56.20 144.69 63.74 144.68 71.29 144.73 C 71.30 146.82 71.30 148.91 71.31 151.00 C 65.90 151.00 60.50 151.00 55.10 151.00 C 54.81 154.38 54.47 157.75 54.13 161.12 C 59.30 160.63 65.16 160.10 69.56 163.43 C 77.13 169.19 75.44 182.93 66.71 186.74 C 60.33 189.39 52.77 189.07 46.47 186.36 C 46.01 184.14 46.12 181.84 45.98 179.59 C 51.11 181.70 56.99 183.47 62.43 181.49 C 68.01 179.42 68.44 170.17 62.90 167.82 C 58.85 166.10 54.34 167.06 50.16 167.74 C 49.08 167.11 48.00 166.47 46.92 165.84 Z" />
<path fill="#edf4fa" opacity="1.00" d=" M 184.28 161.27 C 186.48 158.76 190.15 159.79 192.94 160.42 C 190.32 161.85 185.10 160.89 185.24 165.03 C 184.82 167.75 187.63 168.58 189.63 169.29 C 189.74 168.60 189.96 167.22 190.07 166.53 C 189.33 166.27 187.84 165.76 187.10 165.50 C 188.70 165.05 190.26 164.48 191.83 163.92 C 191.93 166.02 191.99 168.12 192.06 170.22 C 189.80 170.29 187.41 170.83 185.25 169.90 C 182.60 167.95 182.48 163.83 184.28 161.27 Z" />
<path fill="#edf4fa" opacity="1.00" d=" M 194.16 159.57 C 196.50 159.72 198.84 159.94 201.18 160.23 C 201.14 161.58 201.10 162.93 201.01 164.27 C 201.26 166.20 201.38 168.14 201.36 170.08 C 198.96 170.20 196.55 170.28 194.15 170.33 C 194.13 166.74 194.13 163.16 194.16 159.57 M 196.18 161.25 C 196.15 162.07 196.08 163.72 196.05 164.55 C 197.44 163.87 198.79 163.11 200.12 162.31 C 198.81 161.94 197.49 161.58 196.18 161.25 M 195.91 165.26 C 196.02 166.30 196.24 168.38 196.35 169.42 C 197.55 168.73 198.76 168.05 199.92 167.28 C 198.83 166.19 197.28 165.84 195.91 165.26 Z" />
<path fill="#edf4fa" opacity="1.00" d=" M 294.86 158.95 C 298.53 160.18 298.95 164.28 300.30 167.37 C 301.21 164.82 302.09 162.26 303.03 159.71 C 303.73 159.72 305.15 159.75 305.86 159.76 C 305.36 163.51 307.41 168.49 303.90 171.18 C 303.77 168.57 303.69 165.96 303.74 163.35 C 302.68 165.94 301.77 168.64 300.14 170.94 C 298.39 168.49 297.59 165.57 296.60 162.77 C 296.57 165.28 296.56 167.79 296.54 170.30 L 294.71 170.25 C 294.69 166.48 294.67 162.71 294.86 158.95 Z" />
<path fill="#edf4fa" opacity="1.00" d=" M 308.17 159.53 C 311.05 159.64 314.37 159.53 315.99 162.42 C 315.67 162.85 315.02 163.71 314.70 164.14 C 315.32 166.07 315.41 168.08 315.33 170.09 C 312.93 170.20 310.54 170.28 308.15 170.34 C 308.13 166.73 308.13 163.13 308.17 159.53 M 310.18 161.24 C 310.15 162.07 310.09 163.74 310.07 164.57 C 311.41 163.81 312.81 163.12 314.14 162.31 C 312.81 161.95 311.49 161.59 310.18 161.24 M 309.89 165.42 C 310.03 166.45 310.30 168.52 310.43 169.55 C 311.60 168.61 312.84 167.72 314.01 166.78 C 312.64 166.30 311.27 165.84 309.89 165.42 Z" />
<path fill="#edf4fa" opacity="1.00" d=" M 159.08 176.16 C 161.26 176.46 163.56 176.47 165.60 177.40 C 168.40 179.46 168.27 184.38 165.49 186.41 C 163.46 187.26 161.20 187.26 159.05 187.55 C 158.98 183.75 158.98 179.96 159.08 176.16 M 161.19 177.55 C 160.96 180.35 160.86 183.15 160.86 185.96 C 162.83 185.21 165.73 184.77 165.48 181.98 C 166.02 179.28 162.92 178.66 161.19 177.55 Z" />
<path fill="#edf4fa" opacity="1.00" d=" M 183.49 176.30 C 184.49 174.72 186.86 176.59 185.73 177.99 C 184.71 179.55 182.32 177.72 183.49 176.30 Z" />
<path fill="#edf4fa" opacity="1.00" d=" M 194.69 175.94 C 195.17 175.98 196.11 176.05 196.58 176.08 C 196.57 178.13 196.57 180.18 196.59 182.24 C 197.57 181.18 198.55 180.12 199.53 179.06 C 200.18 179.04 201.47 178.99 202.11 178.96 C 201.08 180.13 200.03 181.30 199.00 182.47 C 200.10 184.33 201.15 186.21 202.07 188.18 C 200.31 186.92 198.64 185.55 197.09 184.06 C 196.44 185.49 195.76 186.90 194.92 188.23 C 194.68 184.14 194.65 180.04 194.69 175.94 Z" />
<path fill="#edf4fa" opacity="1.00" d=" M 77.20 188.86 C 78.22 184.39 79.09 179.34 82.72 176.18 C 81.70 180.65 80.80 185.66 77.20 188.86 Z" />
<path fill="#edf4fa" opacity="1.00" d=" M 143.50 176.51 C 145.65 176.66 147.79 176.87 149.92 177.22 C 148.00 178.04 146.00 178.62 144.05 179.37 C 145.72 180.97 149.98 181.91 148.95 184.93 C 148.15 188.71 143.28 187.37 141.08 185.57 C 143.32 185.38 145.57 185.25 147.82 185.13 C 146.03 183.36 144.08 181.79 142.25 180.08 C 142.66 178.89 143.08 177.70 143.50 176.51 Z" />
<path fill="#edf4fa" opacity="1.00" d=" M 150.35 179.22 C 150.82 175.20 155.42 176.76 157.96 177.34 C 155.99 178.06 153.94 178.52 151.92 179.04 C 153.59 180.88 157.66 181.74 157.02 184.79 C 156.20 188.62 151.33 187.52 149.10 185.61 C 151.29 185.38 153.49 185.22 155.69 185.05 C 153.88 183.16 151.09 181.90 150.35 179.22 Z" />
<path fill="#edf4fa" opacity="1.00" d=" M 173.20 176.23 C 175.38 176.47 177.63 176.49 179.72 177.23 C 182.58 178.95 182.49 183.22 180.73 185.70 C 178.71 187.56 175.69 187.09 173.18 187.51 C 173.12 183.75 173.12 179.99 173.20 176.23 M 175.38 177.64 C 175.30 180.46 175.32 183.28 175.45 186.10 C 177.16 185.13 180.06 184.63 179.76 182.06 C 180.32 179.30 177.30 178.49 175.38 177.64 Z" />
<path fill="#edf4fa" opacity="1.00" d=" M 246.14 176.53 C 246.82 176.51 248.19 176.48 248.88 176.46 C 249.80 179.08 250.72 181.71 251.67 184.32 C 252.57 181.75 253.46 179.18 254.33 176.60 C 255.00 176.54 256.34 176.43 257.01 176.38 C 257.04 180.36 257.12 184.36 256.56 188.31 C 254.96 186.06 255.10 183.24 254.80 180.63 C 253.91 183.22 252.90 185.77 251.80 188.27 C 250.11 185.69 249.07 182.77 248.16 179.83 C 248.10 182.40 248.02 184.97 247.78 187.53 C 247.41 187.40 246.67 187.13 246.30 187.00 C 245.94 183.52 246.15 180.01 246.14 176.53 Z" />
<path fill="#edf4fa" opacity="1.00" d=" M 183.57 179.12 C 184.09 179.09 185.14 179.04 185.66 179.01 C 185.60 182.21 185.56 185.43 184.99 188.59 C 183.55 185.63 183.66 182.32 183.57 179.12 Z" />
<path fill="#edf4fa" opacity="1.00" d=" M 187.70 179.89 C 189.43 177.99 192.03 179.51 193.98 180.17 C 192.39 180.48 190.80 180.78 189.22 181.07 C 190.60 182.04 192.09 182.90 193.33 184.06 C 193.40 188.13 188.12 188.14 186.15 185.53 C 187.92 185.49 189.70 185.56 191.47 185.62 C 190.08 183.89 186.21 182.59 187.70 179.89 Z" />
<path fill="#edf4fa" opacity="1.00" d=" M 258.77 181.25 C 259.58 180.37 260.40 179.49 261.22 178.61 C 262.53 178.98 263.87 179.25 265.15 179.75 C 265.78 180.95 265.99 182.32 266.50 183.58 C 264.44 183.84 262.37 184.07 260.32 184.38 C 262.46 184.97 264.61 185.53 266.76 186.13 C 264.89 186.57 263.04 187.97 261.10 187.01 C 258.62 186.21 259.19 183.25 258.77 181.25 M 261.59 181.11 C 261.75 182.52 262.41 182.77 263.58 181.85 C 263.41 180.43 262.74 180.18 261.59 181.11 Z" />
<path fill="#edf4fa" opacity="1.00" d=" M 267.64 179.11 C 269.94 179.20 272.25 179.24 274.55 179.37 C 275.97 179.26 277.39 179.23 278.81 179.16 C 279.07 181.99 281.11 186.20 277.85 187.92 C 277.43 185.30 277.30 182.64 277.02 180.01 C 273.97 181.75 274.70 185.55 273.88 188.43 C 272.39 185.86 272.34 182.83 271.85 179.98 C 269.58 182.20 269.56 185.58 268.10 188.27 C 267.70 185.23 267.66 182.17 267.64 179.11 Z" />
<path fill="#edf4fa" opacity="1.00" d=" M 282.81 178.57 C 284.79 179.17 287.87 178.80 288.45 181.38 C 290.09 184.58 286.58 188.91 283.17 186.90 C 279.87 185.23 281.08 180.98 282.81 178.57 M 283.43 181.28 C 282.49 182.89 283.25 186.77 285.62 185.40 C 287.14 184.25 286.76 182.18 286.08 180.67 C 285.42 180.82 284.09 181.13 283.43 181.28 Z" />
<path fill="#edf4fa" opacity="1.00" d=" M 290.10 178.81 C 290.89 179.00 291.67 179.22 292.46 179.46 C 294.12 179.21 295.79 179.08 297.46 178.86 C 298.07 180.73 298.67 182.60 299.25 184.48 C 300.17 182.08 300.90 179.32 303.46 178.13 C 302.55 181.81 301.35 185.45 299.67 188.86 C 299.03 190.69 296.79 190.42 295.33 191.09 C 296.24 189.70 297.24 188.38 298.02 186.92 C 297.57 184.45 296.44 182.18 295.52 179.87 C 292.15 181.37 292.13 185.05 291.50 188.18 C 289.46 185.46 290.25 181.97 290.10 178.81 Z" />
<path fill="#edf4fa" opacity="1.00" d=" M 83.71 179.66 C 86.02 179.77 88.34 179.87 90.64 180.05 C 92.15 179.96 93.66 179.89 95.17 179.83 C 95.55 182.88 95.99 186.09 94.44 188.91 C 93.92 186.40 93.71 183.85 93.16 181.35 C 89.67 181.16 91.29 185.60 90.69 187.83 C 90.24 187.85 89.35 187.90 88.91 187.93 C 88.58 185.54 89.19 182.74 87.38 180.84 C 85.54 182.71 85.97 185.49 85.61 187.87 C 85.14 187.87 84.20 187.88 83.72 187.88 C 83.70 185.14 83.70 182.40 83.71 179.66 Z" />
<path fill="#edf4fa" opacity="1.00" d=" M 98.37 180.42 C 100.14 178.90 104.12 179.39 104.61 182.07 C 105.47 184.34 104.58 187.53 101.87 187.92 C 97.77 189.05 95.40 182.94 98.37 180.42 M 99.31 185.65 C 100.42 186.21 101.55 186.23 102.70 185.72 C 102.66 183.88 102.28 182.08 101.90 180.29 C 100.24 181.62 98.73 183.35 99.31 185.65 Z" />
<path fill="#edf4fa" opacity="1.00" d=" M 70.75 247.96 C 71.20 247.98 72.12 248.03 72.57 248.06 C 72.45 252.83 72.94 257.65 72.13 262.38 C 71.16 261.46 70.69 260.35 70.73 259.04 C 70.60 255.35 70.76 251.65 70.75 247.96 Z" />
<path fill="#edf4fa" opacity="1.00" d=" M 122.26 248.32 C 123.71 247.23 125.44 249.66 123.85 250.62 C 122.41 251.68 120.62 249.25 122.26 248.32 Z" />
<path fill="#edf4fa" opacity="1.00" d=" M 160.42 248.07 C 160.87 248.04 161.77 247.98 162.22 247.95 C 162.01 252.88 163.25 258.15 160.99 262.76 C 160.06 257.92 160.53 252.97 160.42 248.07 Z" />
<path fill="#edf4fa" opacity="1.00" d=" M 37.46 261.68 C 37.43 257.32 37.42 252.97 37.47 248.61 C 40.46 248.90 44.23 248.02 46.44 250.60 C 48.79 253.60 48.44 258.91 44.85 260.83 C 42.52 261.82 39.92 261.50 37.46 261.68 M 39.36 249.93 C 39.23 253.40 39.25 256.87 39.31 260.34 C 41.12 259.89 43.23 259.93 44.72 258.65 C 46.44 256.64 46.49 253.34 44.68 251.37 C 43.13 250.31 41.13 250.36 39.36 249.93 Z" />
<path fill="#edf4fa" opacity="1.00" d=" M 133.09 252.18 C 133.73 251.31 134.39 250.46 135.06 249.62 C 135.28 250.16 135.72 251.25 135.95 251.79 C 136.71 251.95 138.23 252.25 138.99 252.40 C 137.80 252.84 136.62 253.29 135.43 253.74 C 135.55 255.69 135.67 257.64 135.84 259.58 C 136.81 259.98 138.76 260.76 139.73 261.16 C 137.90 261.48 136.04 261.57 134.19 261.49 C 134.02 258.67 133.97 255.84 133.86 253.02 C 132.25 253.31 130.64 253.62 129.04 253.97 C 128.51 256.91 128.11 259.89 127.13 262.73 C 126.63 259.24 126.72 255.71 126.69 252.20 C 128.82 252.23 130.95 252.15 133.09 252.18 Z" />
<path fill="#edf4fa" opacity="1.00" d=" M 50.67 260.39 C 48.29 257.61 49.56 251.32 54.00 251.68 C 56.95 251.38 57.65 254.65 58.41 256.75 C 55.79 256.95 53.17 257.09 50.56 257.37 C 52.19 260.01 55.10 260.19 57.88 259.83 C 57.70 260.26 57.34 261.13 57.17 261.56 C 54.99 261.57 52.34 262.21 50.67 260.39 M 53.67 253.25 C 52.69 253.98 51.77 254.80 50.85 255.60 C 52.81 255.62 54.77 255.59 56.73 255.47 C 55.74 254.69 54.79 253.84 53.67 253.25 Z" />
<path fill="#edf4fa" opacity="1.00" d=" M 60.00 252.12 C 62.56 252.33 66.09 250.71 67.78 253.38 C 69.60 256.51 68.28 260.38 65.33 262.24 C 64.50 261.95 62.83 261.36 61.99 261.06 C 61.77 263.07 61.88 265.27 60.46 266.91 C 59.69 262.01 60.06 257.05 60.00 252.12 M 62.05 254.26 C 61.54 256.67 61.41 260.72 64.96 260.05 C 68.82 258.17 65.87 250.87 62.05 254.26 Z" />
<path fill="#edf4fa" opacity="1.00" d=" M 76.35 252.50 C 80.01 249.76 84.83 253.78 83.48 257.93 C 83.22 262.19 77.26 263.01 75.21 259.63 C 74.58 257.34 74.10 254.06 76.35 252.50 M 76.93 254.22 C 75.90 256.34 76.07 259.79 78.99 260.08 C 81.42 260.02 82.09 257.26 81.71 255.30 C 80.75 253.49 78.56 252.78 76.93 254.22 Z" />
<path fill="#edf4fa" opacity="1.00" d=" M 84.14 251.20 C 87.06 252.80 87.65 256.26 88.89 259.05 C 90.06 256.27 90.49 252.79 93.33 251.11 C 92.10 255.69 90.63 260.29 88.37 264.47 C 87.14 266.24 84.85 265.59 83.13 265.16 C 84.03 264.81 85.83 264.10 86.73 263.75 C 87.07 263.26 87.73 262.29 88.07 261.80 C 86.69 258.29 85.15 254.84 84.14 251.20 Z" />
<path fill="#edf4fa" opacity="1.00" d=" M 98.74 253.19 C 100.74 251.86 104.43 250.55 105.91 253.20 C 106.55 255.89 106.23 258.70 106.31 261.45 C 103.76 261.40 101.21 261.43 98.66 261.24 C 98.66 259.86 98.69 258.49 98.76 257.11 C 100.57 255.64 103.06 255.72 105.21 255.10 C 103.47 253.38 101.03 253.35 98.74 253.19 M 100.01 259.39 C 101.13 259.69 102.26 259.97 103.40 260.23 C 103.83 259.00 104.25 257.77 104.66 256.54 C 102.87 257.04 100.59 257.28 100.01 259.39 Z" />
<path fill="#edf4fa" opacity="1.00" d=" M 111.78 251.16 C 114.97 252.65 115.19 256.46 116.48 259.31 C 117.71 256.42 117.96 252.59 121.23 251.17 C 119.99 255.05 118.55 258.86 116.85 262.56 C 114.11 259.31 113.00 255.13 111.78 251.16 Z" />
<path fill="#edf4fa" opacity="1.00" d=" M 122.15 251.99 C 122.62 251.99 123.57 252.00 124.04 252.00 C 124.03 255.61 124.16 259.26 123.37 262.81 C 121.50 259.51 122.28 255.60 122.15 251.99 Z" />
<path fill="#edf4fa" opacity="1.00" d=" M 139.99 251.94 C 140.37 251.97 141.12 252.03 141.50 252.06 C 141.55 254.70 141.66 257.34 141.91 259.98 C 143.24 259.87 144.57 259.75 145.91 259.62 C 146.09 257.08 146.17 254.54 146.22 252.00 C 146.67 252.00 147.55 252.00 148.00 252.00 C 148.00 255.14 148.00 258.28 148.00 261.42 C 145.57 261.15 142.47 262.55 140.51 260.67 C 139.49 257.92 140.16 254.82 139.99 251.94 Z" />
<path fill="#edf4fa" opacity="1.00" d=" M 150.23 253.01 C 152.47 251.98 154.93 251.73 157.37 251.70 C 157.84 254.89 157.87 258.12 157.93 261.34 C 155.82 261.34 153.71 261.71 151.61 261.38 C 150.66 260.30 150.06 258.96 149.33 257.73 C 151.67 256.29 154.35 255.67 156.98 254.96 C 154.98 253.57 152.54 253.42 150.23 253.01 M 151.31 260.35 C 153.85 260.31 155.99 259.18 156.87 256.70 C 154.21 256.62 152.05 257.67 151.31 260.35 Z" />
<path fill="#edf4fa" opacity="1.00" d=" M 93.12 269.35 C 94.53 268.26 96.36 270.66 94.76 271.64 C 93.33 272.75 91.56 270.34 93.12 269.35 Z" />
<path fill="#edf4fa" opacity="1.00" d=" M 163.92 269.68 C 164.63 269.71 165.34 269.73 166.05 269.75 C 165.86 273.26 166.01 276.89 164.73 280.24 C 164.08 276.76 164.03 273.21 163.92 269.68 Z" />
<path fill="#edf4fa" opacity="1.00" d=" M 113.21 269.71 C 115.43 269.71 117.66 269.72 119.89 269.74 L 119.78 271.27 C 118.14 271.27 116.50 271.26 114.87 271.26 C 114.70 272.28 114.54 273.31 114.37 274.34 C 116.80 274.71 120.61 274.78 120.62 278.11 C 121.12 283.08 114.07 284.44 111.39 280.88 C 113.64 280.93 115.88 281.05 118.13 281.11 C 118.34 279.80 118.56 278.49 118.67 277.18 C 116.83 276.19 114.69 276.31 112.69 276.07 C 112.86 273.95 113.03 271.82 113.21 269.71 Z" />
<path fill="#edf4fa" opacity="1.00" d=" M 123.23 269.57 C 125.81 269.68 128.44 269.73 130.88 270.69 C 128.83 271.06 126.76 271.30 124.68 271.51 C 124.62 272.47 124.56 273.43 124.50 274.40 C 126.91 274.69 130.60 274.85 130.62 278.10 C 131.28 283.15 124.03 284.42 121.41 280.86 C 123.58 280.94 125.75 281.03 127.93 281.12 C 128.27 279.70 128.60 278.28 128.92 276.86 C 126.85 276.51 124.77 276.29 122.70 276.10 C 122.88 273.92 123.05 271.74 123.23 269.57 Z" />
<path fill="#edf4fa" opacity="1.00" d=" M 83.44 273.65 C 84.54 273.20 85.64 272.77 86.74 272.34 C 86.79 272.71 86.89 273.44 86.94 273.81 C 85.76 274.37 84.66 275.06 83.64 275.88 C 82.88 278.46 82.89 281.21 82.21 283.82 C 80.64 280.35 81.23 276.46 81.16 272.77 C 81.92 273.06 82.68 273.36 83.44 273.65 Z" />
<path fill="#edf4fa" opacity="1.00" d=" M 36.50 275.89 C 36.86 272.20 40.82 272.78 43.49 272.79 C 43.38 273.23 43.15 274.11 43.03 274.54 C 41.29 274.57 39.55 274.71 37.82 274.91 C 39.94 276.41 42.17 277.75 44.29 279.26 C 43.59 280.28 42.96 281.37 42.12 282.31 C 40.12 283.65 37.72 282.30 35.77 281.54 C 37.97 281.18 40.19 280.95 42.37 280.50 C 40.65 278.66 38.17 277.77 36.50 275.89 Z" />
<path fill="#edf4fa" opacity="1.00" d=" M 46.15 274.23 C 47.23 272.29 49.85 272.54 51.64 273.16 C 53.22 274.34 53.13 276.48 53.69 278.18 C 51.19 278.24 48.69 278.30 46.20 278.51 C 47.89 280.78 50.47 281.30 53.15 280.91 C 52.98 281.39 52.63 282.34 52.45 282.82 C 50.27 282.72 48.11 282.48 45.96 282.11 C 45.51 279.54 44.36 276.55 46.15 274.23 M 46.27 276.53 C 48.27 276.59 50.28 276.57 52.29 276.47 C 51.62 275.93 50.27 274.87 49.59 274.34 C 48.39 274.91 47.34 275.75 46.27 276.53 Z" />
<path fill="#edf4fa" opacity="1.00" d=" M 55.48 272.62 C 55.92 272.86 56.81 273.36 57.25 273.61 C 59.16 273.23 61.07 272.92 63.01 272.75 C 63.94 275.32 64.80 277.91 65.61 280.52 C 66.89 277.59 67.20 273.74 70.37 272.15 C 69.42 275.61 68.34 279.08 66.63 282.25 C 66.23 282.38 65.42 282.63 65.01 282.76 C 63.55 279.87 62.53 276.80 61.39 273.78 C 60.09 274.60 58.04 274.81 57.61 276.54 C 57.08 278.50 57.27 280.56 57.15 282.57 L 55.45 282.52 C 55.43 279.21 55.43 275.91 55.48 272.62 Z" />
<path fill="#edf4fa" opacity="1.00" d=" M 73.62 282.47 C 68.83 280.80 70.59 271.37 76.08 272.81 C 78.78 273.06 78.94 276.18 79.76 278.14 C 77.19 278.25 74.62 278.33 72.07 278.57 C 73.85 281.13 77.01 281.08 79.78 281.56 C 77.84 282.30 75.71 283.45 73.62 282.47 M 72.17 276.47 C 74.07 276.59 75.98 276.63 77.89 276.60 C 77.09 275.81 76.28 275.02 75.47 274.24 C 74.28 274.84 73.23 275.68 72.17 276.47 Z" />
<path fill="#edf4fa" opacity="1.00" d=" M 92.97 273.00 C 93.44 273.00 94.38 273.01 94.85 273.01 C 94.72 276.61 95.50 280.53 93.63 283.82 C 92.84 280.26 92.97 276.61 92.97 273.00 Z" />
<path fill="#edf4fa" opacity="1.00" d=" M 97.45 272.77 C 97.90 272.92 98.80 273.21 99.25 273.35 C 101.08 273.06 103.02 272.52 104.80 273.34 C 106.07 276.19 105.43 279.43 105.59 282.46 L 104.11 282.65 C 103.58 279.91 105.10 275.76 102.09 274.16 C 97.86 274.77 99.64 279.69 99.17 282.63 L 97.44 282.45 C 97.44 279.22 97.43 276.00 97.45 272.77 Z" />
<path fill="#edf4fa" opacity="1.00" d=" M 138.06 273.01 C 140.17 272.58 142.32 273.02 144.42 273.30 C 142.44 274.52 140.11 274.59 137.90 275.02 C 139.69 276.78 144.06 277.37 143.58 280.48 C 142.58 284.03 138.17 282.84 135.80 281.53 C 138.16 281.09 140.55 280.81 142.90 280.28 C 140.80 278.93 138.64 277.70 136.49 276.44 C 136.97 275.27 137.44 274.10 138.06 273.01 Z" />
<path fill="#edf4fa" opacity="1.00" d=" M 148.52 282.68 C 143.30 281.58 144.33 271.84 150.03 272.72 C 152.93 272.73 153.28 276.06 154.04 278.15 C 151.66 278.20 149.28 278.23 146.90 278.25 C 147.10 278.83 147.49 279.97 147.68 280.54 C 149.75 280.86 151.83 281.10 153.90 281.50 C 152.19 282.14 150.42 283.37 148.52 282.68 M 146.36 276.55 C 148.38 276.60 150.40 276.55 152.41 276.41 C 151.67 275.89 150.18 274.86 149.43 274.35 C 148.32 274.95 147.37 275.80 146.36 276.55 Z" />
<path fill="#edf4fa" opacity="1.00" d=" M 156.08 274.24 C 157.37 272.17 160.10 273.04 162.12 272.75 L 161.95 274.76 C 161.06 274.59 159.29 274.24 158.41 274.07 C 157.28 275.87 156.94 277.96 156.70 280.04 C 158.76 280.63 160.83 281.16 162.88 281.79 C 160.67 282.83 158.25 282.72 155.92 282.18 C 155.35 279.62 154.21 276.53 156.08 274.24 Z" />
<path fill="#edf4fa" opacity="1.00" d=" M 164.16 280.48 C 165.63 279.25 167.24 281.81 165.74 282.79 C 164.28 284.00 162.61 281.43 164.16 280.48 Z" />
</g>
<g id="#88b7eeff">
<path fill="#88b7ee" opacity="1.00" d=" M 41.27 154.29 C 41.86 154.69 41.86 154.69 41.27 154.29 Z" />
</g>
<g id="#295897ff">
<path fill="#295897" opacity="1.00" d=" M 0.00 227.00 C 116.67 227.01 233.33 226.99 350.00 227.00 L 350.00 300.00 L 0.00 300.00 L 0.00 227.00 M 179.00 238.00 C 179.00 255.14 178.99 272.28 179.00 289.41 C 224.80 289.47 270.59 289.41 316.39 289.44 C 316.19 272.29 316.66 255.13 316.14 237.99 C 270.43 238.01 224.71 237.99 179.00 238.00 M 70.75 247.96 C 70.76 251.65 70.60 255.35 70.73 259.04 C 70.69 260.35 71.16 261.46 72.13 262.38 C 72.94 257.65 72.45 252.83 72.57 248.06 C 72.12 248.03 71.20 247.98 70.75 247.96 M 122.26 248.32 C 120.62 249.25 122.41 251.68 123.85 250.62 C 125.44 249.66 123.71 247.23 122.26 248.32 M 160.42 248.07 C 160.53 252.97 160.06 257.92 160.99 262.76 C 163.25 258.15 162.01 252.88 162.22 247.95 C 161.77 247.98 160.87 248.04 160.42 248.07 M 37.46 261.68 C 39.92 261.50 42.52 261.82 44.85 260.83 C 48.44 258.91 48.79 253.60 46.44 250.60 C 44.23 248.02 40.46 248.90 37.47 248.61 C 37.42 252.97 37.43 257.32 37.46 261.68 M 133.09 252.18 C 130.95 252.15 128.82 252.23 126.69 252.20 C 126.72 255.71 126.63 259.24 127.13 262.73 C 128.11 259.89 128.51 256.91 129.04 253.97 C 130.64 253.62 132.25 253.31 133.86 253.02 C 133.97 255.84 134.02 258.67 134.19 261.49 C 136.04 261.57 137.90 261.48 139.73 261.16 C 138.76 260.76 136.81 259.98 135.84 259.58 C 135.67 257.64 135.55 255.69 135.43 253.74 C 136.62 253.29 137.80 252.84 138.99 252.40 C 138.23 252.25 136.71 251.95 135.95 251.79 C 135.72 251.25 135.28 250.16 135.06 249.62 C 134.39 250.46 133.73 251.31 133.09 252.18 M 50.67 260.39 C 52.34 262.21 54.99 261.57 57.17 261.56 C 57.34 261.13 57.70 260.26 57.88 259.83 C 55.10 260.19 52.19 260.01 50.56 257.37 C 53.17 257.09 55.79 256.95 58.41 256.75 C 57.65 254.65 56.95 251.38 54.00 251.68 C 49.56 251.32 48.29 257.61 50.67 260.39 M 60.00 252.12 C 60.06 257.05 59.69 262.01 60.46 266.91 C 61.88 265.27 61.77 263.07 61.99 261.06 C 62.83 261.36 64.50 261.95 65.33 262.24 C 68.28 260.38 69.60 256.51 67.78 253.38 C 66.09 250.71 62.56 252.33 60.00 252.12 M 76.35 252.50 C 74.10 254.06 74.58 257.34 75.21 259.63 C 77.26 263.01 83.22 262.19 83.48 257.93 C 84.83 253.78 80.01 249.76 76.35 252.50 M 84.14 251.20 C 85.15 254.84 86.69 258.29 88.07 261.80 C 87.73 262.29 87.07 263.26 86.73 263.75 C 85.83 264.10 84.03 264.81 83.13 265.16 C 84.85 265.59 87.14 266.24 88.37 264.47 C 90.63 260.29 92.10 255.69 93.33 251.11 C 90.49 252.79 90.06 256.27 88.89 259.05 C 87.65 256.26 87.06 252.80 84.14 251.20 M 98.74 253.19 C 101.03 253.35 103.47 253.38 105.21 255.10 C 103.06 255.72 100.57 255.64 98.76 257.11 C 98.69 258.49 98.66 259.86 98.66 261.24 C 101.21 261.43 103.76 261.40 106.31 261.45 C 106.23 258.70 106.55 255.89 105.91 253.20 C 104.43 250.55 100.74 251.86 98.74 253.19 M 111.78 251.16 C 113.00 255.13 114.11 259.31 116.85 262.56 C 118.55 258.86 119.99 255.05 121.23 251.17 C 117.96 252.59 117.71 256.42 116.48 259.31 C 115.19 256.46 114.97 252.65 111.78 251.16 M 122.15 251.99 C 122.28 255.60 121.50 259.51 123.37 262.81 C 124.16 259.26 124.03 255.61 124.04 252.00 C 123.57 252.00 122.62 251.99 122.15 251.99 M 139.99 251.94 C 140.16 254.82 139.49 257.92 140.51 260.67 C 142.47 262.55 145.57 261.15 148.00 261.42 C 148.00 258.28 148.00 255.14 148.00 252.00 C 147.55 252.00 146.67 252.00 146.22 252.00 C 146.17 254.54 146.09 257.08 145.91 259.62 C 144.57 259.75 143.24 259.87 141.91 259.98 C 141.66 257.34 141.55 254.70 141.50 252.06 C 141.12 252.03 140.37 251.97 139.99 251.94 M 150.23 253.01 C 152.54 253.42 154.98 253.57 156.98 254.96 C 154.35 255.67 151.67 256.29 149.33 257.73 C 150.06 258.96 150.66 260.30 151.61 261.38 C 153.71 261.71 155.82 261.34 157.93 261.34 C 157.87 258.12 157.84 254.89 157.37 251.70 C 154.93 251.73 152.47 251.98 150.23 253.01 M 93.12 269.35 C 91.56 270.34 93.33 272.75 94.76 271.64 C 96.36 270.66 94.53 268.26 93.12 269.35 M 163.92 269.68 C 164.03 273.21 164.08 276.76 164.73 280.24 C 166.01 276.89 165.86 273.26 166.05 269.75 C 165.34 269.73 164.63 269.71 163.92 269.68 M 113.21 269.71 C 113.03 271.82 112.86 273.95 112.69 276.07 C 114.69 276.31 116.83 276.19 118.67 277.18 C 118.56 278.49 118.34 279.80 118.13 281.11 C 115.88 281.05 113.64 280.93 111.39 280.88 C 114.07 284.44 121.12 283.08 120.62 278.11 C 120.61 274.78 116.80 274.71 114.37 274.34 C 114.54 273.31 114.70 272.28 114.87 271.26 C 116.50 271.26 118.14 271.27 119.78 271.27 L 119.89 269.74 C 117.66 269.72 115.43 269.71 113.21 269.71 M 123.23 269.57 C 123.05 271.74 122.88 273.92 122.70 276.10 C 124.77 276.29 126.85 276.51 128.92 276.86 C 128.60 278.28 128.27 279.70 127.93 281.12 C 125.75 281.03 123.58 280.94 121.41 280.86 C 124.03 284.42 131.28 283.15 130.62 278.10 C 130.60 274.85 126.91 274.69 124.50 274.40 C 124.56 273.43 124.62 272.47 124.68 271.51 C 126.76 271.30 128.83 271.06 130.88 270.69 C 128.44 269.73 125.81 269.68 123.23 269.57 M 83.44 273.65 C 82.68 273.36 81.92 273.06 81.16 272.77 C 81.23 276.46 80.64 280.35 82.21 283.82 C 82.89 281.21 82.88 278.46 83.64 275.88 C 84.66 275.06 85.76 274.37 86.94 273.81 C 86.89 273.44 86.79 272.71 86.74 272.34 C 85.64 272.77 84.54 273.20 83.44 273.65 M 36.50 275.89 C 38.17 277.77 40.65 278.66 42.37 280.50 C 40.19 280.95 37.97 281.18 35.77 281.54 C 37.72 282.30 40.12 283.65 42.12 282.31 C 42.96 281.37 43.59 280.28 44.29 279.26 C 42.17 277.75 39.94 276.41 37.82 274.91 C 39.55 274.71 41.29 274.57 43.03 274.54 C 43.15 274.11 43.38 273.23 43.49 272.79 C 40.82 272.78 36.86 272.20 36.50 275.89 M 46.15 274.23 C 44.36 276.55 45.51 279.54 45.96 282.11 C 48.11 282.48 50.27 282.72 52.45 282.82 C 52.63 282.34 52.98 281.39 53.15 280.91 C 50.47 281.30 47.89 280.78 46.20 278.51 C 48.69 278.30 51.19 278.24 53.69 278.18 C 53.13 276.48 53.22 274.34 51.64 273.16 C 49.85 272.54 47.23 272.29 46.15 274.23 M 55.48 272.62 C 55.43 275.91 55.43 279.21 55.45 282.52 L 57.15 282.57 C 57.27 280.56 57.08 278.50 57.61 276.54 C 58.04 274.81 60.09 274.60 61.39 273.78 C 62.53 276.80 63.55 279.87 65.01 282.76 C 65.42 282.63 66.23 282.38 66.63 282.25 C 68.34 279.08 69.42 275.61 70.37 272.15 C 67.20 273.74 66.89 277.59 65.61 280.52 C 64.80 277.91 63.94 275.32 63.01 272.75 C 61.07 272.92 59.16 273.23 57.25 273.61 C 56.81 273.36 55.92 272.86 55.48 272.62 M 73.62 282.47 C 75.71 283.45 77.84 282.30 79.78 281.56 C 77.01 281.08 73.85 281.13 72.07 278.57 C 74.62 278.33 77.19 278.25 79.76 278.14 C 78.94 276.18 78.78 273.06 76.08 272.81 C 70.59 271.37 68.83 280.80 73.62 282.47 M 92.97 273.00 C 92.97 276.61 92.84 280.26 93.63 283.82 C 95.50 280.53 94.72 276.61 94.85 273.01 C 94.38 273.01 93.44 273.00 92.97 273.00 M 97.45 272.77 C 97.43 276.00 97.44 279.22 97.44 282.45 L 99.17 282.63 C 99.64 279.69 97.86 274.77 102.09 274.16 C 105.10 275.76 103.58 279.91 104.11 282.65 L 105.59 282.46 C 105.43 279.43 106.07 276.19 104.80 273.34 C 103.02 272.52 101.08 273.06 99.25 273.35 C 98.80 273.21 97.90 272.92 97.45 272.77 M 138.06 273.01 C 137.44 274.10 136.97 275.27 136.49 276.44 C 138.64 277.70 140.80 278.93 142.90 280.28 C 140.55 280.81 138.16 281.09 135.80 281.53 C 138.17 282.84 142.58 284.03 143.58 280.48 C 144.06 277.37 139.69 276.78 137.90 275.02 C 140.11 274.59 142.44 274.52 144.42 273.30 C 142.32 273.02 140.17 272.58 138.06 273.01 M 148.52 282.68 C 150.42 283.37 152.19 282.14 153.90 281.50 C 151.83 281.10 149.75 280.86 147.68 280.54 C 147.49 279.97 147.10 278.83 146.90 278.25 C 149.28 278.23 151.66 278.20 154.04 278.15 C 153.28 276.06 152.93 272.73 150.03 272.72 C 144.33 271.84 143.30 281.58 148.52 282.68 M 156.08 274.24 C 154.21 276.53 155.35 279.62 155.92 282.18 C 158.25 282.72 160.67 282.83 162.88 281.79 C 160.83 281.16 158.76 280.63 156.70 280.04 C 156.94 277.96 157.28 275.87 158.41 274.07 C 159.29 274.24 161.06 274.59 161.95 274.76 L 162.12 272.75 C 160.10 273.04 157.37 272.17 156.08 274.24 M 164.16 280.48 C 162.61 281.43 164.28 284.00 165.74 282.79 C 167.24 281.81 165.63 279.25 164.16 280.48 Z" />
<path fill="#295897" opacity="1.00" d=" M 39.36 249.93 C 41.13 250.36 43.13 250.31 44.68 251.37 C 46.49 253.34 46.44 256.64 44.72 258.65 C 43.23 259.93 41.12 259.89 39.31 260.34 C 39.25 256.87 39.23 253.40 39.36 249.93 Z" />
<path fill="#295897" opacity="1.00" d=" M 53.67 253.25 C 54.79 253.84 55.74 254.69 56.73 255.47 C 54.77 255.59 52.81 255.62 50.85 255.60 C 51.77 254.80 52.69 253.98 53.67 253.25 Z" />
<path fill="#295897" opacity="1.00" d=" M 62.05 254.26 C 65.87 250.87 68.82 258.17 64.96 260.05 C 61.41 260.72 61.54 256.67 62.05 254.26 Z" />
<path fill="#295897" opacity="1.00" d=" M 76.93 254.22 C 78.56 252.78 80.75 253.49 81.71 255.30 C 82.09 257.26 81.42 260.02 78.99 260.08 C 76.07 259.79 75.90 256.34 76.93 254.22 Z" />
<path fill="#295897" opacity="1.00" d=" M 100.01 259.39 C 100.59 257.28 102.87 257.04 104.66 256.54 C 104.25 257.77 103.83 259.00 103.40 260.23 C 102.26 259.97 101.13 259.69 100.01 259.39 Z" />
<path fill="#295897" opacity="1.00" d=" M 151.31 260.35 C 152.05 257.67 154.21 256.62 156.87 256.70 C 155.99 259.18 153.85 260.31 151.31 260.35 Z" />
<path fill="#295897" opacity="1.00" d=" M 46.27 276.53 C 47.34 275.75 48.39 274.91 49.59 274.34 C 50.27 274.87 51.62 275.93 52.29 276.47 C 50.28 276.57 48.27 276.59 46.27 276.53 Z" />
<path fill="#295897" opacity="1.00" d=" M 72.17 276.47 C 73.23 275.68 74.28 274.84 75.47 274.24 C 76.28 275.02 77.09 275.81 77.89 276.60 C 75.98 276.63 74.07 276.59 72.17 276.47 Z" />
<path fill="#295897" opacity="1.00" d=" M 146.36 276.55 C 147.37 275.80 148.32 274.95 149.43 274.35 C 150.18 274.86 151.67 275.89 152.41 276.41 C 150.40 276.55 148.38 276.60 146.36 276.55 Z" />
</g>
<g id="#ffa11bff">
<path fill="#ffa11b" opacity="1.00" d=" M 179.00 238.00 C 224.71 237.99 270.43 238.01 316.14 237.99 C 316.66 255.13 316.19 272.29 316.39 289.44 C 270.59 289.41 224.80 289.47 179.00 289.41 C 178.99 272.28 179.00 255.14 179.00 238.00 M 299.43 255.76 C 299.48 257.25 299.54 258.74 299.61 260.24 C 297.55 259.99 294.66 259.07 293.35 261.33 C 291.86 263.97 291.66 267.77 293.71 270.18 C 295.17 272.03 297.64 270.89 299.54 270.63 C 300.60 270.82 301.67 271.00 302.74 271.18 C 302.76 266.03 302.75 260.89 302.75 255.74 C 301.64 255.74 300.53 255.75 299.43 255.76 M 194.41 257.29 C 190.30 259.58 189.99 265.76 192.63 269.27 C 195.17 272.30 199.53 271.10 202.92 270.76 C 202.99 268.09 203.01 265.42 203.02 262.75 C 201.01 262.75 199.01 262.75 197.01 262.75 C 197.00 263.49 196.99 264.98 196.99 265.72 C 197.82 265.76 199.47 265.83 200.30 265.86 C 199.99 266.55 199.38 267.92 199.08 268.61 C 193.70 269.52 192.74 260.87 197.28 259.35 C 198.89 259.17 200.49 259.51 202.07 259.71 C 202.45 258.77 202.82 257.84 203.19 256.91 C 200.30 256.66 197.14 255.88 194.41 257.29 M 231.32 259.09 C 230.01 263.64 235.35 265.02 237.92 267.42 C 235.70 268.81 233.24 268.17 230.89 267.61 C 230.98 268.47 231.17 270.17 231.27 271.03 C 233.90 271.03 236.97 271.95 239.23 270.17 C 241.10 268.80 240.13 266.31 240.07 264.42 C 238.18 262.90 234.55 262.45 234.35 259.64 C 236.11 259.20 237.92 259.57 239.70 259.71 C 239.90 259.02 240.30 257.65 240.50 256.96 C 237.47 256.66 232.74 255.33 231.32 259.09 M 216.51 261.27 C 216.86 261.72 217.58 262.62 217.93 263.07 C 218.20 265.65 217.36 268.74 219.23 270.86 C 221.43 271.82 224.27 271.43 225.27 268.98 C 224.33 268.77 222.44 268.37 221.50 268.17 C 221.20 266.31 221.22 264.42 221.13 262.55 C 221.91 262.53 223.47 262.50 224.25 262.49 C 224.25 261.87 224.25 260.62 224.25 260.00 C 223.62 260.00 222.36 260.00 221.72 260.00 C 221.38 259.35 220.70 258.04 220.35 257.39 C 219.11 258.72 217.78 259.97 216.51 261.27 M 241.19 261.29 C 241.63 261.71 242.51 262.53 242.95 262.94 C 243.04 265.21 242.77 267.53 243.34 269.75 C 244.61 272.32 249.52 271.84 249.91 268.71 C 249.01 268.64 247.22 268.50 246.32 268.43 C 246.27 266.46 246.24 264.49 246.21 262.52 C 246.97 262.51 248.49 262.50 249.25 262.50 C 249.25 261.87 249.25 260.62 249.25 260.00 C 248.52 260.00 247.06 260.00 246.33 260.01 C 246.26 259.28 246.11 257.82 246.04 257.09 C 244.35 258.41 242.77 259.85 241.19 261.29 M 271.27 261.32 C 273.29 263.73 272.46 266.96 273.15 269.79 C 274.65 272.25 279.00 271.76 279.96 268.97 C 279.03 268.78 277.18 268.41 276.26 268.22 C 275.95 266.32 275.98 264.38 275.88 262.47 C 276.63 262.50 278.14 262.55 278.89 262.58 C 278.93 261.93 279.01 260.65 279.05 260.00 C 278.33 260.00 276.90 260.00 276.18 260.00 C 275.99 259.27 275.62 257.81 275.43 257.08 C 274.00 258.45 272.63 259.87 271.27 261.32 M 207.39 270.46 C 209.58 271.77 212.25 271.07 214.66 271.11 C 214.77 270.38 215.01 268.92 215.12 268.19 C 212.61 268.87 209.85 269.00 208.07 266.75 C 210.65 266.53 213.24 266.47 215.83 266.38 C 215.74 263.42 214.68 259.62 211.01 259.71 C 205.19 258.77 203.20 267.45 207.39 270.46 M 250.77 260.88 C 252.80 262.85 255.72 262.39 258.24 263.06 C 255.43 264.24 249.30 264.23 250.69 268.93 C 251.41 272.27 255.27 271.11 257.59 270.48 C 258.55 270.75 259.51 271.01 260.48 271.28 C 260.31 267.97 261.08 264.43 259.94 261.28 C 257.63 258.55 253.62 260.00 250.77 260.88 M 263.53 259.65 C 263.48 263.43 263.50 267.22 263.49 271.00 C 264.46 270.98 265.42 270.98 266.39 271.01 C 266.48 268.64 266.62 266.28 266.94 263.93 C 269.12 263.17 271.07 262.04 271.30 259.48 C 269.73 259.92 268.17 260.35 266.59 260.70 C 265.57 260.34 264.55 259.99 263.53 259.65 M 281.15 262.24 C 279.86 265.01 280.13 269.30 283.21 270.78 C 285.39 271.61 287.80 271.08 290.09 271.10 C 290.15 270.38 290.29 268.94 290.36 268.22 C 287.79 268.80 285.07 269.01 283.15 266.79 C 285.78 266.54 288.44 266.47 291.09 266.37 C 290.69 264.67 290.72 262.77 289.70 261.28 C 287.45 258.86 282.71 259.17 281.15 262.24 Z" />
<path fill="#ffa11b" opacity="1.00" d=" M 208.39 263.14 C 210.29 261.52 211.84 262.82 213.14 264.35 C 211.53 264.11 209.59 264.51 208.39 263.14 Z" />
<path fill="#ffa11b" opacity="1.00" d=" M 283.15 264.11 C 284.04 263.41 284.97 262.77 285.95 262.19 C 286.77 262.84 287.56 263.53 288.38 264.18 C 286.63 264.29 284.89 264.05 283.15 264.11 Z" />
<path fill="#ffa11b" opacity="1.00" d=" M 297.01 261.85 C 298.26 262.96 300.33 263.92 299.73 265.99 C 300.22 268.05 297.37 269.52 296.03 267.84 C 294.89 265.79 296.09 263.69 297.01 261.85 Z" />
<path fill="#ffa11b" opacity="1.00" d=" M 255.45 265.97 C 257.51 265.13 258.00 268.38 256.04 268.72 C 254.02 269.47 253.43 266.27 255.45 265.97 Z" />
</g>
<g id="#010000ff">
<path fill="#010000" opacity="1.00" d=" M 299.43 255.76 C 300.53 255.75 301.64 255.74 302.75 255.74 C 302.75 260.89 302.76 266.03 302.74 271.18 C 301.67 271.00 300.60 270.82 299.54 270.63 C 297.64 270.89 295.17 272.03 293.71 270.18 C 291.66 267.77 291.86 263.97 293.35 261.33 C 294.66 259.07 297.55 259.99 299.61 260.24 C 299.54 258.74 299.48 257.25 299.43 255.76 M 297.01 261.85 C 296.09 263.69 294.89 265.79 296.03 267.84 C 297.37 269.52 300.22 268.05 299.73 265.99 C 300.33 263.92 298.26 262.96 297.01 261.85 Z" />
<path fill="#010000" opacity="1.00" d=" M 194.41 257.29 C 197.14 255.88 200.30 256.66 203.19 256.91 C 202.82 257.84 202.45 258.77 202.07 259.71 C 200.49 259.51 198.89 259.17 197.28 259.35 C 192.74 260.87 193.70 269.52 199.08 268.61 C 199.38 267.92 199.99 266.55 200.30 265.86 C 199.47 265.83 197.82 265.76 196.99 265.72 C 196.99 264.98 197.00 263.49 197.01 262.75 C 199.01 262.75 201.01 262.75 203.02 262.75 C 203.01 265.42 202.99 268.09 202.92 270.76 C 199.53 271.10 195.17 272.30 192.63 269.27 C 189.99 265.76 190.30 259.58 194.41 257.29 Z" />
<path fill="#010000" opacity="1.00" d=" M 231.32 259.09 C 232.74 255.33 237.47 256.66 240.50 256.96 C 240.30 257.65 239.90 259.02 239.70 259.71 C 237.92 259.57 236.11 259.20 234.35 259.64 C 234.55 262.45 238.18 262.90 240.07 264.42 C 240.13 266.31 241.10 268.80 239.23 270.17 C 236.97 271.95 233.90 271.03 231.27 271.03 C 231.17 270.17 230.98 268.47 230.89 267.61 C 233.24 268.17 235.70 268.81 237.92 267.42 C 235.35 265.02 230.01 263.64 231.32 259.09 Z" />
<path fill="#010000" opacity="1.00" d=" M 216.51 261.27 C 217.78 259.97 219.11 258.72 220.35 257.39 C 220.70 258.04 221.38 259.35 221.72 260.00 C 222.36 260.00 223.62 260.00 224.25 260.00 C 224.25 260.62 224.25 261.87 224.25 262.49 C 223.47 262.50 221.91 262.53 221.13 262.55 C 221.22 264.42 221.20 266.31 221.50 268.17 C 222.44 268.37 224.33 268.77 225.27 268.98 C 224.27 271.43 221.43 271.82 219.23 270.86 C 217.36 268.74 218.20 265.65 217.93 263.07 C 217.58 262.62 216.86 261.72 216.51 261.27 Z" />
<path fill="#010000" opacity="1.00" d=" M 241.19 261.29 C 242.77 259.85 244.35 258.41 246.04 257.09 C 246.11 257.82 246.26 259.28 246.33 260.01 C 247.06 260.00 248.52 260.00 249.25 260.00 C 249.25 260.62 249.25 261.87 249.25 262.50 C 248.49 262.50 246.97 262.51 246.21 262.52 C 246.24 264.49 246.27 266.46 246.32 268.43 C 247.22 268.50 249.01 268.64 249.91 268.71 C 249.52 271.84 244.61 272.32 243.34 269.75 C 242.77 267.53 243.04 265.21 242.95 262.94 C 242.51 262.53 241.63 261.71 241.19 261.29 Z" />
<path fill="#010000" opacity="1.00" d=" M 271.27 261.32 C 272.63 259.87 274.00 258.45 275.43 257.08 C 275.62 257.81 275.99 259.27 276.18 260.00 C 276.90 260.00 278.33 260.00 279.05 260.00 C 279.01 260.65 278.93 261.93 278.89 262.58 C 278.14 262.55 276.63 262.50 275.88 262.47 C 275.98 264.38 275.95 266.32 276.26 268.22 C 277.18 268.41 279.03 268.78 279.96 268.97 C 279.00 271.76 274.65 272.25 273.15 269.79 C 272.46 266.96 273.29 263.73 271.27 261.32 Z" />
<path fill="#010000" opacity="1.00" d=" M 207.39 270.46 C 203.20 267.45 205.19 258.77 211.01 259.71 C 214.68 259.62 215.74 263.42 215.83 266.38 C 213.24 266.47 210.65 266.53 208.07 266.75 C 209.85 269.00 212.61 268.87 215.12 268.19 C 215.01 268.92 214.77 270.38 214.66 271.11 C 212.25 271.07 209.58 271.77 207.39 270.46 M 208.39 263.14 C 209.59 264.51 211.53 264.11 213.14 264.35 C 211.84 262.82 210.29 261.52 208.39 263.14 Z" />
<path fill="#010000" opacity="1.00" d=" M 250.77 260.88 C 253.62 260.00 257.63 258.55 259.94 261.28 C 261.08 264.43 260.31 267.97 260.48 271.28 C 259.51 271.01 258.55 270.75 257.59 270.48 C 255.27 271.11 251.41 272.27 250.69 268.93 C 249.30 264.23 255.43 264.24 258.24 263.06 C 255.72 262.39 252.80 262.85 250.77 260.88 M 255.45 265.97 C 253.43 266.27 254.02 269.47 256.04 268.72 C 258.00 268.38 257.51 265.13 255.45 265.97 Z" />
<path fill="#010000" opacity="1.00" d=" M 263.53 259.65 C 264.55 259.99 265.57 260.34 266.59 260.70 C 268.17 260.35 269.73 259.92 271.30 259.48 C 271.07 262.04 269.12 263.17 266.94 263.93 C 266.62 266.28 266.48 268.64 266.39 271.01 C 265.42 270.98 264.46 270.98 263.49 271.00 C 263.50 267.22 263.48 263.43 263.53 259.65 Z" />
<path fill="#010000" opacity="1.00" d=" M 281.15 262.24 C 282.71 259.17 287.45 258.86 289.70 261.28 C 290.72 262.77 290.69 264.67 291.09 266.37 C 288.44 266.47 285.78 266.54 283.15 266.79 C 285.07 269.01 287.79 268.80 290.36 268.22 C 290.29 268.94 290.15 270.38 290.09 271.10 C 287.80 271.08 285.39 271.61 283.21 270.78 C 280.13 269.30 279.86 265.01 281.15 262.24 M 283.15 264.11 C 284.89 264.05 286.63 264.29 288.38 264.18 C 287.56 263.53 286.77 262.84 285.95 262.19 C 284.97 262.77 284.04 263.41 283.15 264.11 Z" />
</g>
</svg>
