<?xml version="1.0" encoding="UTF-8" ?>
<!DOCTYPE svg PUBLIC "-//W3C//DTD SVG 1.1//EN" "http://www.w3.org/Graphics/SVG/1.1/DTD/svg11.dtd">
<svg width="72pt" height="72pt" viewBox="0 0 72 72" version="1.1" xmlns="http://www.w3.org/2000/svg">
<g id="#2db571ff">
<path fill="#2db571" opacity="1.00" d=" M 15.93 8.97 C 21.05 3.36 28.56 0.02 36.17 0.12 C 36.16 2.87 36.07 5.62 35.78 8.36 C 28.80 7.91 21.25 9.02 15.97 14.01 C 10.86 18.43 8.05 25.19 8.27 31.92 C 8.44 37.19 7.73 42.60 9.28 47.74 C 11.36 54.85 17.22 60.70 24.33 62.79 C 28.03 64.04 31.97 63.64 35.80 63.70 C 35.98 66.48 35.99 69.30 36.76 72.00 L 33.78 72.00 C 27.00 71.34 20.53 68.16 15.92 63.14 C 11.30 58.09 5.38 53.93 2.61 47.47 C -1.60 38.55 -0.39 27.40 5.64 19.60 C 8.76 15.78 12.53 12.55 15.93 8.97 Z" />
<path fill="#2db571" opacity="1.00" d=" M 18.44 41.21 C 22.60 34.48 26.39 27.53 30.51 20.78 C 32.28 24.08 34.20 27.28 35.96 30.58 C 33.88 34.20 31.87 37.87 29.66 41.41 C 27.54 44.59 25.77 47.99 23.82 51.28 C 21.90 48.00 19.85 44.75 18.44 41.21 Z" />
</g>
<g id="#279a60ff">
<path fill="#279a60" opacity="1.00" d=" M 36.17 0.12 C 43.40 0.04 50.56 3.16 55.57 8.34 C 58.59 11.38 61.65 14.38 64.65 17.44 C 68.80 21.78 71.28 27.54 72.00 33.47 L 72.00 38.31 C 71.31 45.09 68.21 51.59 63.18 56.21 C 58.49 60.53 54.57 65.87 48.81 68.86 C 45.62 70.58 42.06 71.50 38.49 72.00 L 36.76 72.00 C 35.99 69.30 35.98 66.48 35.80 63.70 C 39.53 63.43 43.37 64.04 46.99 62.86 C 54.09 61.00 60.16 55.42 62.32 48.37 C 64.35 43.14 63.27 37.45 63.55 31.99 C 64.11 22.59 58.03 13.25 49.18 9.99 C 44.97 8.04 40.27 8.50 35.78 8.36 C 36.07 5.62 36.16 2.87 36.17 0.12 Z" />
</g>
<g id="#f2f3f3ff">
<path fill="#f2f3f3" opacity="1.00" d=" M 15.97 14.01 C 21.25 9.02 28.80 7.91 35.78 8.36 C 35.78 9.65 35.79 10.95 35.80 12.24 C 40.03 12.58 44.55 11.51 48.51 13.47 C 55.09 16.23 59.96 22.81 60.24 29.99 C 60.57 37.97 61.45 47.19 55.57 53.55 C 50.81 59.46 42.92 60.58 35.80 60.55 C 35.80 61.34 35.80 62.91 35.80 63.70 C 31.97 63.64 28.03 64.04 24.33 62.79 C 17.22 60.70 11.36 54.85 9.28 47.74 C 7.73 42.60 8.44 37.19 8.27 31.92 C 8.05 25.19 10.86 18.43 15.97 14.01 M 11.67 31.03 C 11.77 37.83 10.55 45.41 14.73 51.33 C 17.02 54.62 20.23 58.31 24.47 58.52 C 24.47 56.21 25.37 53.55 23.95 51.49 C 31.86 51.52 39.77 51.36 47.67 51.47 C 49.97 48.33 51.73 44.82 53.68 41.46 L 53.64 41.46 C 49.87 34.46 45.55 27.76 41.74 20.78 C 38.00 20.58 34.25 20.62 30.51 20.78 C 31.70 18.33 32.65 13.51 29.99 11.92 C 20.11 11.98 11.49 21.20 11.67 31.03 Z" />
<path fill="#f2f3f3" opacity="1.00" d=" M 29.66 41.41 C 31.87 37.87 33.88 34.20 35.96 30.58 C 38.09 34.17 40.08 37.84 42.18 41.45 C 38.01 41.40 33.83 41.46 29.66 41.41 Z" />
</g>
<g id="#d6d7d8ff">
<path fill="#d6d7d8" opacity="1.00" d=" M 35.78 8.36 C 40.27 8.50 44.97 8.04 49.18 9.99 C 58.03 13.25 64.11 22.59 63.55 31.99 C 63.27 37.45 64.35 43.14 62.32 48.37 C 60.16 55.42 54.09 61.00 46.99 62.86 C 43.37 64.04 39.53 63.43 35.80 63.70 C 35.80 62.91 35.80 61.34 35.80 60.55 C 42.92 60.58 50.81 59.46 55.57 53.55 C 61.45 47.19 60.57 37.97 60.24 29.99 C 59.96 22.81 55.09 16.23 48.51 13.47 C 44.55 11.51 40.03 12.58 35.80 12.24 C 35.79 10.95 35.78 9.65 35.78 8.36 Z" />
<path fill="#d6d7d8" opacity="1.00" d=" M 11.67 31.03 C 11.49 21.20 20.11 11.98 29.99 11.92 C 32.65 13.51 31.70 18.33 30.51 20.78 C 26.39 27.53 22.60 34.48 18.44 41.21 C 19.85 44.75 21.90 48.00 23.82 51.28 L 23.95 51.49 C 25.37 53.55 24.47 56.21 24.47 58.52 C 20.23 58.31 17.02 54.62 14.73 51.33 C 10.55 45.41 11.77 37.83 11.67 31.03 Z" />
</g>
<g id="#fdd04aff">
<path fill="#fdd04a" opacity="1.00" d=" M 30.51 20.78 C 34.25 20.62 38.00 20.58 41.74 20.78 C 45.55 27.76 49.87 34.46 53.64 41.46 C 49.82 41.48 46.00 41.49 42.18 41.45 C 40.08 37.84 38.09 34.17 35.96 30.58 C 34.20 27.28 32.28 24.08 30.51 20.78 Z" />
</g>
<g id="#3e82f7ff">
<path fill="#3e82f7" opacity="1.00" d=" M 29.66 41.41 C 33.83 41.46 38.01 41.40 42.18 41.45 C 46.00 41.49 49.82 41.48 53.64 41.46 L 53.68 41.46 C 51.73 44.82 49.97 48.33 47.67 51.47 C 39.77 51.36 31.86 51.52 23.95 51.49 L 23.82 51.28 C 25.77 47.99 27.54 44.59 29.66 41.41 Z" />
</g>
</svg>
